<?xml version="1.0" standalone="no"?>
<!DOCTYPE svg PUBLIC "-//W3C//DTD SVG 20010904//EN"
 "http://www.w3.org/TR/2001/REC-SVG-20010904/DTD/svg10.dtd">
<svg version="1.0" xmlns="http://www.w3.org/2000/svg"
 width="1024.000000pt" height="1024.000000pt" viewBox="0 0 1024.000000 1024.000000"
 preserveAspectRatio="xMidYMid meet">

<g transform="translate(0.000000,1024.000000) scale(0.100000,-0.100000)"
fill="#950f0f" stroke="none">
<path d="M3285 9878 c-60 -4 -116 -5 -122 -3 -7 2 -13 0 -13 -5 0 -6 -11 -10
-25 -10 -14 0 -77 -12 -140 -26 -63 -14 -120 -22 -126 -18 -7 4 -9 3 -6 -3 7
-12 -129 -57 -149 -49 -8 3 -13 2 -10 -3 8 -13 -70 -42 -90 -34 -13 5 -15 3
-9 -7 6 -10 4 -12 -9 -7 -9 4 -15 3 -12 -2 8 -12 -53 -33 -68 -24 -6 3 -8 2
-4 -2 11 -11 -110 -77 -125 -69 -7 4 -9 4 -5 -1 5 -4 -27 -29 -70 -55 -76 -46
-213 -141 -240 -167 -8 -7 -18 -10 -24 -7 -6 4 -8 2 -4 -4 8 -13 -43 -54 -57
-45 -5 3 -7 1 -3 -5 6 -10 -67 -76 -76 -67 -3 3 -13 -5 -24 -17 l-19 -23 25
20 25 20 -24 -27 c-13 -15 -28 -25 -34 -21 -6 3 -7 1 -4 -4 8 -13 -17 -36 -27
-25 -4 4 -6 0 -4 -8 2 -8 -3 -14 -10 -12 -8 1 -11 -2 -8 -7 7 -11 -19 -33 -28
-23 -4 4 -6 0 -4 -8 1 -8 -2 -14 -9 -13 -8 2 -10 -4 -6 -14 5 -12 2 -15 -9
-11 -10 4 -15 1 -14 -10 0 -9 -5 -16 -12 -14 -8 1 -11 -2 -8 -7 7 -11 -19 -33
-28 -23 -4 4 -6 3 -5 -3 5 -16 -21 -56 -32 -50 -5 4 -8 1 -7 -7 2 -7 -2 -12
-8 -11 -7 1 -11 -5 -10 -15 0 -9 -5 -16 -12 -14 -8 1 -10 -2 -7 -8 8 -13 -24
-52 -35 -45 -4 3 -7 -3 -6 -13 0 -9 -4 -16 -10 -15 -6 1 -11 -4 -11 -10 0 -19
-34 -68 -43 -62 -4 3 -7 -3 -6 -13 0 -9 -4 -16 -10 -15 -7 1 -11 -5 -10 -15 0
-9 -5 -16 -12 -14 -8 1 -11 -2 -7 -7 3 -6 -3 -19 -15 -31 -11 -11 -20 -22 -20
-25 0 -3 0 -10 0 -16 0 -5 -5 -7 -12 -3 -6 4 -9 3 -6 -2 9 -15 -11 -56 -23
-48 -8 4 -9 3 -5 -4 10 -16 -12 -54 -26 -46 -7 4 -8 3 -4 -4 10 -16 -12 -54
-26 -46 -7 5 -9 2 -6 -7 7 -19 -10 -62 -22 -54 -6 4 -7 -1 -3 -11 4 -12 3 -15
-5 -10 -8 4 -10 2 -6 -8 3 -8 -3 -23 -14 -34 -11 -11 -18 -22 -16 -25 7 -7
-35 -97 -45 -97 -6 0 -7 -7 -4 -17 5 -12 3 -14 -7 -8 -8 5 -11 4 -6 -3 8 -14
-44 -143 -55 -136 -5 3 -6 -2 -3 -10 3 -9 1 -16 -5 -16 -6 0 -8 -7 -4 -17 5
-11 3 -14 -6 -8 -10 6 -11 2 -6 -15 5 -15 4 -20 -4 -16 -7 5 -9 1 -5 -8 3 -9
1 -16 -5 -16 -6 0 -8 -7 -5 -15 4 -8 2 -15 -2 -15 -5 0 -10 -12 -10 -26 -3
-38 -45 -164 -56 -164 -5 0 -7 -4 -4 -8 7 -12 -15 -102 -25 -102 -6 0 -7 -5
-4 -10 8 -13 -27 -160 -37 -160 -4 0 -5 -6 -2 -14 8 -21 -25 -179 -39 -188 -9
-6 -9 -8 0 -8 13 0 6 -72 -7 -78 -4 -1 -5 -14 -2 -27 3 -16 0 -25 -9 -25 -9 0
-10 -3 -2 -11 6 -6 7 -26 3 -52 -5 -23 -11 -84 -15 -134 -5 -59 -11 -93 -19
-93 -6 0 -5 -4 3 -9 7 -5 10 -14 6 -21 -10 -16 -8 -542 3 -647 5 -56 4 -83 -3
-83 -6 0 -6 -3 1 -8 7 -4 12 -25 12 -47 0 -22 3 -48 7 -58 4 -9 5 -31 3 -47
-3 -17 0 -30 5 -30 5 0 7 -20 5 -45 -2 -25 0 -46 5 -48 4 -1 8 -28 10 -59 1
-32 6 -58 11 -58 4 0 6 -13 4 -30 -3 -16 -1 -30 2 -30 4 0 10 -23 14 -51 16
-118 98 -449 162 -652 19 -59 31 -113 28 -119 -4 -7 -2 -8 4 -4 8 4 13 -1 14
-13 0 -12 1 -27 2 -33 1 -7 5 -16 9 -19 5 -4 10 -18 10 -32 1 -14 6 -23 11
-19 5 3 7 -5 4 -16 -4 -12 -3 -20 1 -17 10 5 63 -144 55 -156 -3 -5 -1 -9 5
-9 10 0 44 -82 44 -106 0 -8 5 -14 10 -14 5 0 6 -7 3 -16 -3 -8 -2 -13 3 -10
11 7 33 -52 25 -65 -3 -5 0 -9 6 -9 7 0 9 -7 6 -16 -3 -8 -2 -13 3 -10 11 7
33 -53 24 -67 -4 -6 -1 -7 7 -2 10 6 12 3 8 -13 -4 -14 -2 -20 5 -15 7 4 8 0
4 -11 -4 -11 -3 -15 4 -10 6 3 10 -1 9 -12 -4 -34 0 -45 11 -38 7 4 10 1 7 -7
-3 -8 1 -18 8 -24 16 -13 30 -60 15 -51 -7 5 -9 1 -5 -8 3 -9 11 -13 17 -9 6
4 8 0 4 -10 -3 -10 -2 -17 3 -17 5 0 6 -7 3 -17 -4 -10 -2 -14 4 -10 13 8 46
-70 37 -85 -4 -6 -2 -8 3 -5 6 4 14 0 17 -9 8 -22 8 -26 -4 -19 -6 3 -7 -1 -4
-9 3 -9 11 -13 17 -9 6 4 8 0 4 -10 -3 -10 -2 -17 3 -17 5 0 6 -7 3 -17 -5
-12 -3 -14 7 -8 10 6 12 4 7 -9 -4 -9 -3 -15 2 -12 11 7 33 -52 25 -65 -3 -5
0 -9 6 -9 7 0 9 -7 6 -16 -4 -10 -2 -13 6 -8 8 5 9 2 5 -10 -4 -9 -3 -14 2
-11 12 7 24 -31 15 -46 -4 -7 -3 -9 3 -6 12 8 46 -69 38 -84 -4 -5 -2 -9 3 -9
13 0 73 -140 65 -153 -3 -5 -2 -7 4 -4 5 4 16 -13 24 -36 8 -23 12 -42 9 -43
-3 0 3 -8 13 -18 9 -10 15 -22 12 -27 -4 -5 -2 -9 2 -9 13 0 44 -80 37 -92 -5
-7 -2 -8 6 -3 10 6 12 4 7 -9 -4 -9 -3 -15 2 -12 11 7 33 -53 24 -67 -3 -5 -1
-7 5 -3 13 8 26 -29 16 -45 -4 -7 -3 -9 3 -6 12 7 26 -20 18 -33 -3 -4 2 -11
11 -14 8 -3 14 -14 13 -23 -3 -31 1 -44 10 -39 4 3 13 -6 20 -20 13 -30 14
-45 1 -24 -6 9 -10 10 -10 3 0 -7 8 -17 19 -22 10 -6 21 -20 24 -31 3 -11 1
-18 -4 -14 -5 3 -6 -2 -3 -10 3 -9 10 -14 14 -11 11 7 42 -74 34 -87 -4 -6 -2
-8 3 -5 13 8 24 -17 17 -37 -3 -8 -1 -17 5 -21 7 -4 9 1 6 12 -3 10 4 0 15
-22 11 -22 17 -46 15 -53 -3 -8 0 -10 7 -6 8 5 9 2 5 -10 -4 -9 -3 -15 2 -12
11 7 23 -22 14 -36 -4 -7 -1 -8 7 -3 10 6 12 3 8 -13 -4 -12 -3 -20 1 -17 11
6 33 -44 25 -57 -4 -6 -2 -8 3 -5 13 8 26 -20 16 -35 -3 -7 -1 -8 5 -4 11 7
16 -7 15 -41 -1 -7 3 -11 7 -8 11 7 22 -24 13 -37 -3 -6 -1 -8 4 -5 6 4 23
-20 38 -56 16 -34 52 -111 81 -171 29 -60 51 -113 48 -118 -3 -4 -1 -8 4 -8 9
0 44 -69 42 -84 -1 -5 3 -12 8 -15 17 -11 43 -71 36 -83 -4 -6 -3 -8 3 -5 13
8 26 -20 16 -35 -3 -6 -2 -8 4 -5 12 8 65 -101 57 -116 -4 -7 -4 -9 1 -5 10 9
46 -46 48 -73 1 -10 5 -15 9 -13 7 5 13 -19 9 -39 -1 -5 3 -6 8 -3 11 7 23
-22 14 -36 -3 -6 -2 -8 4 -5 10 6 50 -70 45 -86 -1 -5 2 -6 7 -3 11 7 23 -22
14 -36 -4 -7 -1 -8 7 -3 10 6 12 4 7 -9 -5 -11 -3 -15 5 -10 8 5 9 2 5 -10 -4
-9 -3 -15 2 -12 10 7 23 -22 16 -34 -3 -5 0 -12 6 -16 8 -4 9 -3 5 4 -4 7 -5
12 -2 12 11 0 66 -122 59 -133 -3 -5 -2 -7 4 -4 5 4 16 -6 24 -21 8 -15 40
-73 72 -130 32 -57 55 -108 51 -114 -4 -7 -3 -8 5 -4 6 4 14 0 18 -11 4 -10
17 -35 31 -55 14 -22 21 -42 16 -50 -4 -7 -3 -9 1 -5 11 10 76 -92 68 -107 -3
-6 -2 -8 2 -3 5 4 19 -11 33 -34 17 -29 28 -39 40 -34 87 33 312 108 329 109
11 1 20 3 18 6 -2 3 51 26 118 51 67 26 131 50 141 54 15 7 18 5 12 -6 -4 -8
-1 -6 8 5 8 10 26 19 39 20 14 0 23 4 21 8 -5 8 56 29 67 22 5 -3 9 -1 9 4 0
12 99 54 111 46 5 -3 9 0 9 6 0 7 6 10 13 7 6 -2 17 3 23 11 5 7 22 15 36 15
14 1 24 5 21 10 -4 7 15 11 45 10 7 -1 11 2 7 5 -9 9 85 43 97 36 7 -4 8 -2 4
4 -7 11 -3 14 27 16 6 1 14 3 17 6 14 14 103 50 111 45 5 -4 9 -1 9 5 0 7 7 9
16 6 8 -3 13 -2 10 3 -7 11 22 23 36 14 7 -3 8 -1 4 5 -7 11 7 16 41 15 7 -1
10 3 7 8 -5 9 0 11 29 13 6 1 14 4 17 8 10 12 205 100 227 101 11 1 19 5 17 8
-6 10 26 20 38 12 6 -3 8 -1 5 4 -8 13 70 46 85 37 6 -4 8 -3 5 3 -8 13 68 47
84 38 7 -5 10 -4 6 2 -8 13 20 26 35 16 6 -3 8 -2 5 4 -8 13 41 36 55 27 6 -4
8 -2 5 3 -8 13 20 26 36 16 7 -3 9 -2 4 2 -10 11 70 48 85 39 6 -4 8 -3 5 3
-8 13 20 26 35 16 7 -4 8 -1 3 7 -6 10 -4 12 9 7 9 -4 15 -3 12 2 -7 11 50 35
64 26 6 -3 9 -1 8 7 -2 8 6 13 19 12 12 0 19 4 16 9 -4 6 1 8 11 4 11 -5 15
-3 10 5 -5 8 -2 9 10 5 11 -5 15 -3 10 5 -5 8 -2 9 10 5 9 -4 15 -3 12 2 -6 9
44 35 52 26 3 -3 -1 -5 -8 -5 -7 0 -10 -3 -6 -7 4 -4 15 3 25 16 11 14 28 24
44 24 15 0 24 3 22 7 -7 11 24 22 37 13 6 -3 8 -1 5 4 -8 13 20 26 35 16 6 -3
8 -1 5 4 -8 13 20 26 35 16 6 -3 8 -2 5 4 -8 13 41 36 55 27 6 -4 8 -2 5 3 -8
13 20 26 35 16 6 -3 8 -1 5 4 -8 13 20 26 35 16 6 -3 8 -1 5 4 -8 13 20 26 35
16 7 -3 8 -1 4 5 -7 11 -3 14 27 16 6 1 17 7 22 14 6 7 20 14 32 15 12 0 20 4
17 8 -6 10 26 20 38 12 6 -3 8 -2 5 4 -5 9 142 83 150 76 2 -2 12 6 24 18 11
11 27 18 35 15 8 -3 13 -2 10 3 -7 11 22 23 36 14 6 -3 8 -1 5 4 -8 13 20 26
35 16 7 -4 8 -1 3 7 -5 8 -3 11 5 8 8 -2 22 4 33 15 10 10 25 16 33 13 8 -3
13 -2 10 3 -7 11 22 23 36 14 7 -4 8 -1 4 6 -7 11 15 24 37 21 4 0 15 6 23 15
9 8 20 12 26 9 6 -4 8 -2 5 3 -8 13 20 26 35 16 6 -3 8 -1 5 4 -8 13 17 24 37
17 8 -3 17 -1 21 5 4 7 -1 9 -12 5 -17 -5 -17 -5 0 6 9 6 22 8 29 4 6 -4 8 -3
5 3 -8 13 20 26 35 16 6 -3 8 -1 5 4 -8 12 20 26 34 17 5 -3 8 0 7 7 -2 6 3
14 11 17 9 3 11 0 7 -9 -4 -8 1 -4 11 9 10 13 28 24 40 25 12 0 20 4 17 8 -6
10 26 20 38 12 6 -3 8 -2 5 4 -6 10 70 50 85 45 5 -1 8 3 8 9 0 6 7 9 15 6 8
-4 17 -1 21 5 4 7 3 8 -4 4 -7 -4 -12 -5 -12 -2 0 11 81 46 92 40 6 -4 8 -3 5
3 -8 13 20 26 36 16 7 -3 9 -3 5 2 -10 11 50 47 64 39 7 -5 8 -2 3 6 -6 10 -4
12 9 7 10 -4 15 -3 11 3 -6 9 8 14 28 11 5 -1 6 3 3 8 -7 11 22 23 36 14 6 -3
8 -1 4 5 -3 6 6 17 21 25 38 19 99 54 128 73 13 9 29 13 34 10 5 -4 13 -1 17
5 4 8 3 9 -4 5 -7 -4 -12 -5 -12 -2 0 10 102 66 111 61 5 -4 8 -1 7 5 -2 7 11
19 27 28 38 21 237 160 289 201 21 17 42 28 47 25 5 -3 8 0 7 8 -2 7 5 12 14
12 10 -1 16 2 13 6 -3 5 28 33 67 63 40 31 86 67 102 81 16 14 33 23 39 19 5
-3 7 -1 3 5 -8 13 43 54 57 45 5 -3 7 -2 4 4 -7 11 111 120 125 115 4 -1 7 2
6 7 -4 12 215 230 225 224 4 -2 6 1 5 9 -2 7 3 12 10 10 6 -1 11 2 10 6 -2 4
24 39 57 77 33 38 76 87 95 109 40 45 72 86 110 136 14 18 33 42 43 54 10 11
26 33 35 49 9 15 23 27 31 27 8 0 12 3 8 6 -8 9 71 124 85 124 6 0 9 3 5 6 -8
9 53 105 63 99 5 -3 8 3 7 12 -1 22 31 73 46 73 6 0 7 3 4 6 -10 11 13 45 25
38 8 -5 9 -1 5 10 -4 10 1 24 12 35 11 11 17 22 14 24 -8 9 17 48 27 42 6 -3
7 1 4 9 -3 8 3 23 13 34 10 10 19 25 21 33 2 8 10 19 17 25 8 6 12 13 10 16
-9 9 25 79 35 73 6 -3 7 1 4 9 -3 9 -1 16 6 16 6 0 9 4 5 9 -3 5 8 36 25 69
16 33 30 63 30 67 0 16 53 125 61 125 5 0 6 7 3 15 -4 8 -2 15 4 15 5 0 10 6
9 13 -1 32 4 48 13 42 6 -3 7 1 4 9 -3 9 -1 16 5 16 6 0 8 7 5 15 -4 8 -1 15
6 15 6 0 8 4 5 10 -8 12 34 150 46 150 4 0 6 7 3 15 -4 8 -1 15 6 15 6 0 8 5
5 11 -8 12 14 99 25 99 3 0 5 14 2 30 -3 19 0 30 7 30 7 0 9 4 6 10 -9 14 6
81 16 74 5 -3 6 9 3 26 -4 16 -2 30 3 30 5 0 8 13 5 30 -2 16 0 30 5 30 6 0 8
11 5 25 -2 14 0 25 7 25 6 0 8 11 5 30 -4 17 -3 30 2 30 5 0 7 21 5 46 -2 32
0 44 8 40 6 -4 11 -2 11 3 0 6 -3 11 -7 11 -5 0 -6 22 -5 50 2 27 8 50 14 50
5 0 6 4 3 10 -11 17 -11 400 0 400 6 0 4 4 -3 9 -8 5 -13 23 -12 47 2 22 0 46
-3 54 -10 30 -28 180 -22 190 3 6 1 10 -6 10 -7 0 -10 11 -7 30 3 17 1 30 -3
30 -4 0 -10 19 -14 43 -4 23 -27 102 -51 176 -23 74 -41 138 -38 143 3 4 0 8
-6 8 -7 0 -9 7 -6 16 3 8 2 13 -3 10 -12 -8 -33 53 -24 68 3 6 3 8 -2 4 -11
-10 -47 71 -38 85 3 5 1 7 -4 4 -13 -8 -26 20 -16 35 3 7 1 8 -5 4 -12 -7 -16
5 -13 33 2 7 -2 10 -8 7 -12 -8 -45 50 -36 64 3 5 0 12 -6 16 -8 5 -10 2 -5
-7 4 -8 1 -5 -8 5 -8 10 -13 23 -9 29 3 6 2 7 -4 4 -12 -7 -46 49 -38 63 4 6
1 9 -7 8 -7 -2 -13 6 -13 17 0 11 -7 20 -15 20 -8 0 -14 8 -14 18 1 9 -2 15
-6 12 -12 -7 -51 45 -43 58 3 6 1 7 -5 3 -11 -7 -17 7 -12 29 1 5 -2 7 -6 3
-10 -11 -35 12 -27 25 3 5 1 7 -4 4 -15 -9 -47 29 -37 45 4 7 4 10 -1 6 -11
-11 -36 12 -28 26 3 6 3 8 -2 4 -11 -10 -37 11 -29 23 3 5 0 8 -8 7 -7 -2 -12
3 -10 10 1 8 -1 11 -6 8 -12 -7 -54 38 -45 49 5 4 2 5 -5 1 -8 -5 -20 0 -30
11 -9 11 -60 52 -112 92 -52 41 -100 79 -105 85 -6 6 -16 12 -23 14 -24 5 -92
54 -86 63 3 5 -2 6 -10 3 -8 -3 -23 3 -34 13 -10 10 -25 19 -33 21 -8 2 -19
10 -25 17 -6 8 -14 12 -17 9 -9 -10 -48 16 -41 28 4 7 2 8 -5 4 -13 -9 -101
31 -101 45 0 6 -4 8 -9 5 -12 -8 -112 34 -106 44 3 4 -1 8 -8 7 -32 -1 -48 4
-42 13 3 6 -1 7 -9 4 -9 -3 -16 -1 -16 5 0 6 -7 8 -15 5 -8 -4 -15 -2 -15 4 0
6 -10 8 -22 5 -19 -4 -20 -3 -8 7 12 9 11 10 -7 5 -22 -6 -103 13 -103 24 0 3
-17 6 -37 7 -20 0 -39 6 -41 12 -2 7 -8 10 -13 6 -14 -8 -213 28 -221 40 -5 7
-8 7 -8 1 0 -6 -26 -9 -65 -7 -39 2 -65 8 -65 15 0 7 -3 8 -10 1 -5 -5 -40 -7
-80 -4 -39 3 -74 3 -76 0 -3 -2 -24 -5 -47 -7 -301 -17 -645 -105 -937 -241
-25 -12 -52 -22 -60 -24 -8 -2 -17 -6 -20 -10 -3 -3 -12 -8 -19 -10 -8 -2 -23
-11 -33 -20 -20 -20 -43 -24 -32 -6 4 7 3 8 -5 4 -6 -4 -9 -11 -6 -15 6 -10
-43 -33 -55 -26 -5 3 -12 0 -16 -6 -4 -8 -3 -9 4 -5 7 4 12 5 12 2 0 -2 -26
-19 -57 -37 -70 -39 -227 -143 -266 -176 -16 -13 -34 -20 -39 -17 -7 4 -8 2
-4 -4 7 -11 -6 -17 -27 -13 -5 1 -6 -3 -3 -8 8 -12 -43 -53 -57 -44 -5 3 -7 1
-3 -5 7 -12 -68 -75 -78 -64 -4 4 -6 1 -4 -7 2 -7 -2 -15 -8 -18 -6 -2 -14 8
-16 22 -3 14 -1 25 6 25 6 0 5 4 -3 9 -8 5 -14 28 -15 55 0 25 -4 46 -8 46 -5
0 -8 8 -8 18 0 19 -65 282 -80 322 -5 14 -25 69 -45 123 -19 54 -33 103 -29
109 4 6 3 8 -4 5 -11 -7 -45 77 -34 87 3 3 1 6 -5 6 -9 0 -48 78 -55 110 -2 8
-6 17 -9 20 -3 3 -32 52 -65 110 -110 192 -209 334 -312 450 -22 25 -38 48
-35 53 2 4 -1 6 -9 5 -7 -2 -12 4 -10 12 2 8 0 12 -4 8 -9 -10 -35 12 -28 23
3 5 1 8 -4 7 -5 -2 -43 29 -84 67 -82 77 -104 95 -142 120 -14 10 -23 21 -20
26 3 5 2 8 -3 7 -13 -4 -123 66 -123 78 0 7 -8 11 -17 10 -10 0 -17 4 -16 11
2 8 -4 10 -14 6 -10 -4 -14 -2 -10 4 4 6 -1 10 -11 9 -9 0 -16 5 -14 12 1 8
-2 11 -8 7 -11 -7 -70 25 -70 38 0 4 -4 5 -10 2 -14 -9 -52 14 -44 27 5 7 1 9
-9 5 -10 -3 -17 -2 -17 4 0 6 -4 8 -9 5 -12 -8 -112 35 -105 45 3 5 -3 6 -12
2 -12 -5 -15 -3 -9 6 6 10 2 11 -15 6 -15 -5 -20 -4 -16 4 5 7 1 9 -8 5 -9 -3
-16 -2 -16 4 0 6 -10 8 -22 4 -16 -4 -19 -2 -13 8 6 9 4 11 -5 5 -14 -9 -130
24 -130 37 0 5 -5 6 -11 3 -12 -8 -99 14 -99 25 0 3 -13 5 -30 2 -16 -2 -30 0
-30 5 0 6 -11 8 -25 5 -14 -2 -25 0 -25 5 0 5 -13 8 -30 5 -16 -2 -30 0 -30 4
0 5 -20 8 -45 6 -25 -2 -45 0 -45 5 0 5 -18 7 -40 5 -22 -2 -40 0 -40 4 0 11
-195 12 -345 2z m253 -2155 c-10 -2 -28 -2 -40 0 -13 2 -5 4 17 4 22 1 32 -1
23 -4z m-124 -41 c-32 -21 -98 -74 -147 -118 -186 -168 -232 -206 -127 -105
147 142 294 261 323 261 6 0 -16 -17 -49 -38z m176 28 c8 -5 11 -10 5 -10 -5
0 -17 5 -25 10 -8 5 -10 10 -5 10 6 0 17 -5 25 -10z m28 -41 c58 -28 163 -96
180 -117 13 -17 16 -64 5 -75 -3 -4 -15 -31 -25 -59 -53 -146 -143 -405 -173
-498 -18 -58 -44 -139 -58 -180 -14 -41 -42 -129 -62 -195 -20 -66 -50 -163
-67 -215 -17 -52 -52 -169 -80 -260 -27 -91 -65 -217 -85 -280 -34 -113 -56
-186 -73 -245 -5 -16 -16 -55 -25 -85 -9 -30 -20 -68 -25 -85 -5 -16 -16 -55
-25 -85 -9 -30 -20 -68 -25 -85 -10 -39 -76 -266 -95 -330 -36 -121 -188 -686
-241 -895 -105 -413 -155 -713 -126 -756 4 -6 23 -20 42 -30 39 -21 127 -23
333 -9 67 4 117 4 117 -1 0 -39 -107 -104 -240 -146 -99 -30 -302 -33 -395 -4
-225 68 -353 198 -416 421 -19 65 -23 106 -23 220 -1 163 13 243 79 440 23 72
53 164 65 205 12 41 26 86 30 100 5 14 23 72 40 130 17 58 56 182 85 275 30
94 68 217 86 275 69 234 129 431 164 540 20 63 52 167 72 230 55 184 100 329
128 420 14 47 40 130 56 185 16 55 34 111 39 125 4 14 20 66 35 115 23 78 109
355 136 439 5 16 9 32 9 36 0 5 -68 -14 -152 -42 -150 -49 -240 -67 -274 -54
-35 13 31 58 226 153 179 87 201 100 270 167 198 191 279 256 350 281 39 13
66 8 138 -26z m66 -3 c81 -46 156 -112 156 -139 0 -24 -61 -190 -67 -183 -2 2
10 39 26 82 17 44 31 88 31 100 0 28 -40 64 -139 123 -95 58 -100 69 -7 17z
m-654 -311 c0 -7 -201 -107 -206 -102 -2 2 42 27 98 55 117 58 108 53 108 47z
m725 -80 c-23 -59 -30 -53 -9 9 9 26 18 45 21 42 3 -3 -3 -25 -12 -51z m-946
-29 c-10 -9 -109 -56 -109 -51 0 6 91 54 104 55 5 0 7 -2 5 -4z m916 -56 c-4
-12 -9 -19 -12 -17 -3 3 -2 15 2 27 4 12 9 19 12 17 3 -3 2 -15 -2 -27z m3040
0 c-3 -5 -30 -9 -58 -8 l-52 1 50 7 c28 4 54 8 58 8 5 1 5 -2 2 -8z m148 3
c-23 -2 -64 -2 -90 0 -26 2 -7 3 42 3 50 0 71 -1 48 -3z m165 0 c-21 -2 -57
-2 -80 0 -24 2 -7 4 37 4 44 0 63 -2 43 -4z m-4423 -35 c-21 -18 -46 -39 -54
-45 -14 -12 -14 -15 3 -28 11 -8 15 -15 10 -15 -12 0 -34 21 -34 32 0 8 98 88
108 88 4 0 -11 -15 -33 -32z m3995 23 c0 -5 -20 -11 -45 -13 -25 -2 -45 0 -45
4 0 4 19 9 43 11 23 2 43 4 45 5 1 1 2 -2 2 -7z m600 -1 c85 -19 92 -21 88
-25 -2 -2 -49 4 -103 15 -56 10 -84 18 -65 19 19 0 55 -4 80 -9z m0 -31 c307
-54 485 -160 709 -424 112 -131 216 -300 249 -405 71 -220 -83 -545 -338 -714
-103 -68 -379 -201 -467 -225 -175 -47 -463 -48 -463 -1 0 5 8 11 18 12 9 0
28 2 42 3 211 17 606 320 737 566 171 321 103 633 -180 828 -173 119 -530 188
-752 147 -488 -93 -1138 -509 -1705 -1092 -207 -214 -302 -333 -352 -442 -17
-37 -41 -90 -54 -119 -71 -151 -37 -291 98 -405 109 -92 122 -98 224 -98 93 0
228 21 419 65 61 14 139 32 175 40 36 8 144 35 240 60 568 147 613 155 885
160 367 7 501 -13 765 -113 185 -70 283 -133 420 -272 159 -161 206 -255 217
-430 12 -213 -83 -534 -214 -724 -227 -327 -617 -618 -1075 -802 -422 -170
-1204 -241 -1738 -158 -342 53 -691 137 -747 180 -122 93 -284 306 -370 484
-63 133 -86 224 -87 347 -1 62 -2 113 -4 113 -1 0 -24 -11 -50 -24 -129 -65
-300 -100 -381 -79 -50 13 -48 26 6 52 82 39 231 144 413 290 96 77 211 162
254 188 73 44 85 48 140 47 64 -1 134 -27 175 -65 21 -19 21 -23 7 -42 -57
-80 -128 -238 -182 -407 -24 -76 -29 -264 -9 -340 26 -100 70 -174 139 -234
162 -139 239 -181 378 -206 157 -28 184 -30 460 -37 565 -13 929 56 1313 249
401 201 696 526 899 987 62 141 59 260 -12 409 -30 65 -110 151 -168 180 -103
51 -318 80 -599 80 -317 -1 -566 -26 -830 -85 -308 -68 -321 -70 -595 -114
-105 -16 -182 -21 -345 -22 -219 -1 -292 7 -400 45 -163 56 -325 176 -406 301
-135 208 -144 562 -19 747 9 14 39 63 66 109 73 125 214 261 509 491 66 52
145 115 175 140 207 177 716 448 1134 604 422 158 918 219 1276 155z m-707 14
c-7 -2 -21 -2 -30 0 -10 3 -4 5 12 5 17 0 24 -2 18 -5z m-3513 -13 c0 -5 -6
-7 -13 -4 -7 2 -46 -7 -86 -21 -41 -14 -79 -25 -85 -24 -16 1 145 57 167 58 9
1 17 -3 17 -9z m648 -93 c-17 -54 -33 -95 -36 -93 -2 3 10 48 28 101 18 53 34
94 36 92 2 -2 -10 -47 -28 -100z m2805 96 c-7 -2 -21 -2 -30 0 -10 3 -4 5 12
5 17 0 24 -2 18 -5z m-68 -12 c-25 -10 -111 -24 -104 -17 7 7 79 24 104 24
l20 1 -20 -8z m978 2 c-7 -2 -19 -2 -25 0 -7 3 -2 5 12 5 14 0 19 -2 13 -5z
m57 -13 c13 -9 13 -10 0 -10 -8 0 -22 5 -30 10 -13 9 -13 10 0 10 8 0 22 -5
30 -10z m-4435 -40 c-4 -12 -9 -19 -12 -17 -3 3 -2 15 2 27 4 12 9 19 12 17 3
-3 2 -15 -2 -27z m3282 24 c-3 -3 -12 -4 -19 -1 -8 3 -5 6 6 6 11 1 17 -2 13
-5z m1208 -4 c8 -13 -5 -13 -25 0 -13 8 -13 10 2 10 9 0 20 -4 23 -10z m-1260
-10 c-11 -5 -27 -9 -35 -9 -13 -1 -13 0 0 9 8 5 24 9 35 9 l20 0 -20 -9z
m-3418 -6 c-3 -3 -12 -4 -19 -1 -8 3 -5 6 6 6 11 1 17 -2 13 -5z m4793 -40
c48 -25 107 -64 131 -85 l44 -39 -52 37 c-29 21 -92 59 -140 85 -49 26 -84 48
-79 48 5 0 48 -21 96 -46z m-4841 26 c-8 -5 -47 -11 -85 -14 l-69 -5 70 13
c92 17 105 18 84 6z m3396 0 c-11 -5 -27 -9 -35 -9 -9 0 -8 4 5 9 11 5 27 9
35 9 9 0 8 -4 -5 -9z m-104 -31 c-30 -10 -56 -17 -58 -15 -5 5 77 34 97 34 8
1 -9 -8 -39 -19z m-3092 -68 c-11 -40 -23 -70 -26 -68 -2 3 6 37 18 76 11 40
23 70 26 68 2 -3 -6 -37 -18 -76z m3021 45 c0 -6 -93 -37 -97 -32 -2 2 15 11
39 19 47 17 58 19 58 13z m-155 -61 c-27 -13 -54 -24 -60 -24 -5 1 13 11 40
24 28 13 55 24 60 24 6 -1 -12 -11 -40 -24z m-2210 -45 c-4 -12 -9 -19 -12
-17 -3 3 -2 15 2 27 4 12 9 19 12 17 3 -3 2 -15 -2 -27z m2115 5 c-14 -8 -29
-14 -35 -14 -5 0 1 6 15 14 14 8 30 14 35 14 6 0 -1 -6 -15 -14z m1158 -2
c-10 -2 -26 -2 -35 0 -10 3 -2 5 17 5 19 0 27 -2 18 -5z m55 0 c-7 -2 -19 -2
-25 0 -7 3 -2 5 12 5 14 0 19 -2 13 -5z m100 0 c-13 -2 -35 -2 -50 0 -16 2 -5
4 22 4 28 0 40 -2 28 -4z m967 -239 c48 -67 30 -53 -38 31 -34 41 -90 105
-124 143 -35 38 -20 25 33 -30 54 -55 111 -120 129 -144z m-1187 229 c-7 -2
-21 -2 -30 0 -10 3 -4 5 12 5 17 0 24 -2 18 -5z m300 0 c-7 -2 -19 -2 -25 0
-7 3 -2 5 12 5 14 0 19 -2 13 -5z m-1444 -6 c-12 -10 -339 -165 -339 -161 0 6
321 164 334 164 5 0 7 -2 5 -3z m1084 -4 c-7 -2 -19 -2 -25 0 -7 3 -2 5 12 5
14 0 19 -2 13 -5z m414 1 c-3 -3 -12 -4 -19 -1 -8 3 -5 6 6 6 11 1 17 -2 13
-5z m-4256 -45 c-6 -16 -10 -18 -10 -7 -1 22 12 55 16 42 2 -6 -1 -22 -6 -35z
m3796 35 c-3 -3 -12 -4 -19 -1 -8 3 -5 6 6 6 11 1 17 -2 13 -5z m563 -15 c25
-14 -9 -10 -50 7 l-35 14 35 -6 c19 -4 42 -10 50 -15z m-3685 -19 c-4 -12 -9
-19 -12 -17 -3 3 -2 15 2 27 4 12 9 19 12 17 3 -3 2 -15 -2 -27z m3070 20
c-11 -5 -27 -9 -35 -9 -9 0 -8 4 5 9 11 5 27 9 35 9 9 0 8 -4 -5 -9z m-65 -20
c-8 -5 -22 -10 -30 -10 -13 0 -13 1 0 10 8 5 22 10 30 10 13 0 13 -1 0 -10z
m750 0 c13 -9 13 -10 0 -10 -8 0 -22 5 -30 10 -13 9 -13 10 0 10 8 0 22 -5 30
-10z m-801 -14 c-8 -8 -173 -76 -176 -72 -2 2 23 14 54 28 32 14 69 30 83 36
26 11 47 15 39 8z m851 -6 c8 -5 11 -10 5 -10 -5 0 -17 5 -25 10 -8 5 -10 10
-5 10 6 0 17 -5 25 -10z m-4511 -89 c-11 -40 -23 -70 -26 -68 -2 3 6 37 18 76
11 40 23 70 26 68 2 -3 -6 -37 -18 -76z m686 49 c-4 -12 -9 -19 -12 -17 -3 3
-2 15 2 27 4 12 9 19 12 17 3 -3 2 -15 -2 -27z m3902 5 c23 -14 43 -28 43 -30
0 -4 -90 41 -99 50 -13 13 17 2 56 -20z m-3938 -114 c-11 -40 -23 -70 -26 -67
-3 2 6 36 18 75 13 39 24 69 27 67 2 -2 -7 -36 -19 -75z m2807 64 c-11 -8 -25
-15 -30 -15 -6 0 -2 7 8 15 11 8 25 15 30 15 6 0 2 -7 -8 -15z m1287 -74 c58
-62 107 -131 93 -131 -3 0 -13 14 -22 32 -9 18 -53 68 -97 111 -43 43 -71 74
-60 69 11 -6 49 -42 86 -81z m-2308 51 c-16 -14 -171 -95 -160 -84 13 14 147
91 160 91 6 1 6 -2 0 -7z m975 3 c0 -3 -39 -25 -87 -50 -49 -24 -112 -58 -140
-75 -29 -18 -53 -29 -53 -27 0 8 255 153 273 156 4 0 7 -1 7 -4z m-3461 -144
c-11 -40 -23 -70 -26 -68 -2 3 6 37 18 76 11 40 23 70 26 68 2 -3 -6 -37 -18
-76z m2309 44 c-5 -5 -192 -125 -218 -140 -12 -6 -12 -5 0 7 15 16 209 138
218 138 3 0 3 -2 0 -5z m2958 -90 c37 -66 24 -54 -27 26 -22 35 -32 55 -21 44
11 -11 32 -42 48 -70z m-4601 35 c-4 -12 -9 -19 -12 -17 -3 3 -2 15 2 27 4 12
9 19 12 17 3 -3 2 -15 -2 -27z m2492 -13 c-10 -7 -71 -48 -134 -92 -147 -102
-165 -113 -128 -80 35 31 264 185 273 184 4 0 -1 -6 -11 -12z m-2528 -96 c-11
-40 -23 -70 -26 -67 -3 2 6 36 18 75 13 39 24 69 27 67 2 -2 -7 -36 -19 -75z
m4291 22 c0 -22 -8 -14 -19 20 -10 29 -9 30 4 13 8 -11 15 -26 15 -33z m-4959
-24 c-9 -22 -10 -22 -10 -3 -1 11 2 24 6 27 12 12 14 0 4 -24z m2104 11 c-3
-5 -16 -15 -28 -21 -21 -10 -21 -9 2 10 25 23 36 27 26 11z m3274 -67 c17 -36
30 -69 29 -73 -2 -3 -20 29 -40 72 -21 44 -34 76 -29 73 5 -3 23 -35 40 -72z
m-399 17 c0 -13 -1 -13 -10 0 -5 8 -10 22 -10 30 0 13 1 13 10 0 5 -8 10 -22
10 -30z m-2930 17 c0 -2 -15 -16 -32 -33 l-33 -29 29 33 c28 30 36 37 36 29z
m-2081 -86 c-11 -40 -23 -70 -26 -68 -2 3 6 37 18 76 11 40 23 70 26 68 2 -3
-6 -37 -18 -76z m5018 -113 c-2 -29 -3 -6 -3 52 0 58 1 81 3 53 2 -29 2 -77 0
-105z m-4352 112 c-4 -12 -9 -19 -12 -17 -3 3 -2 15 2 27 4 12 9 19 12 17 3
-3 2 -15 -2 -27z m1345 27 c0 -2 -12 -14 -27 -28 l-28 -24 24 28 c23 25 31 32
31 24z m876 -60 c-198 -168 -318 -267 -301 -247 32 36 334 290 345 289 3 0
-17 -19 -44 -42z m-966 -18 c-45 -39 -90 -72 -90 -65 0 6 113 96 120 96 3 -1
-11 -14 -30 -31z m-1274 -15 c-4 -14 -9 -24 -12 -21 -3 2 -2 17 2 31 3 15 9
25 11 22 3 -3 2 -17 -1 -32z m4813 -99 c-1 -51 -7 -107 -15 -130 l-13 -40 7
40 c4 22 7 88 7 147 0 59 3 100 7 90 4 -9 7 -57 7 -107z m-5510 6 c-11 -40
-23 -70 -26 -68 -2 3 6 37 18 76 11 40 23 70 26 68 2 -3 -6 -37 -18 -76z
m1856 21 c-11 -10 -76 -66 -145 -124 -161 -137 -225 -204 -294 -307 -31 -46
-56 -80 -56 -75 0 16 73 121 125 182 56 64 193 191 305 281 73 59 104 79 65
43z m-1191 -26 c-3 -15 -8 -25 -11 -23 -2 3 -1 17 3 31 3 15 8 25 11 23 2 -3
1 -17 -3 -31z m4376 -94 c-33 -99 -42 -97 -11 2 14 48 27 82 29 76 3 -7 -6
-42 -18 -78z m-4395 28 c-4 -12 -9 -19 -12 -17 -3 3 -2 15 2 27 4 12 9 19 12
17 3 -3 2 -15 -2 -27z m-684 -51 c-6 -16 -10 -18 -10 -7 -1 22 12 55 16 42 2
-6 -1 -22 -6 -35z m659 -29 c-6 -23 -14 -40 -16 -37 -3 3 0 24 7 46 16 54 24
46 9 -9z m-691 -79 c-11 -40 -23 -70 -26 -68 -2 3 6 37 18 76 11 40 23 70 26
68 2 -3 -6 -37 -18 -76z m2498 -101 c-99 -99 -182 -179 -183 -177 -5 4 348
357 356 357 4 0 -74 -81 -173 -180z m3049 124 c-4 -9 -9 -15 -11 -12 -3 3 -3
13 1 22 4 9 9 15 11 12 3 -3 3 -13 -1 -22z m-484 -6 c-7 -7 -12 -8 -12 -2 0
14 12 26 19 19 2 -3 -1 -11 -7 -17z m-4396 -24 c-4 -14 -9 -24 -12 -21 -3 2
-2 17 2 31 3 15 9 25 11 22 3 -3 2 -17 -1 -32z m4833 -70 c-19 -36 -40 -70
-46 -76 -7 -6 6 26 30 70 23 44 44 79 46 76 2 -2 -11 -33 -30 -70z m-480 22
c-11 -19 -27 -40 -36 -48 -10 -7 -2 8 16 35 37 55 50 63 20 13z m-4380 -35
c-16 -54 -24 -46 -9 9 6 23 14 40 16 37 3 -3 0 -24 -7 -46z m-690 -70 c-11
-40 -23 -70 -26 -68 -2 3 6 37 18 76 11 40 23 70 26 68 2 -3 -6 -37 -18 -76z
m4993 2 c-71 -89 -259 -245 -365 -303 -57 -32 -44 -19 33 31 101 65 240 180
299 247 61 69 79 83 33 25z m-4327 -13 c-4 -12 -9 -19 -12 -17 -3 3 -2 15 2
27 4 12 9 19 12 17 3 -3 2 -15 -2 -27z m4797 -37 c-47 -58 -131 -137 -190
-176 -56 -38 -331 -181 -337 -175 -2 2 65 38 148 81 173 88 262 151 345 243
63 71 80 84 34 27z m-4833 -83 c-12 -39 -23 -69 -26 -67 -2 3 6 39 19 82 12
42 24 72 26 67 2 -6 -7 -42 -19 -82z m-665 16 c-3 -15 -8 -25 -11 -23 -2 3 -1
17 3 31 3 15 8 25 11 23 2 -3 1 -17 -3 -31z m1501 -23 c-9 -16 -29 -50 -45
-78 -16 -27 -30 -46 -30 -42 0 11 17 43 53 100 33 51 48 65 22 20z m834 -68
c-62 -75 -88 -99 -51 -47 25 34 102 122 108 122 2 0 -23 -34 -57 -75z m-2370
-24 c-11 -40 -23 -70 -26 -68 -2 3 6 37 18 76 11 40 23 70 26 68 2 -3 -6 -37
-18 -76z m660 -30 c-7 -23 -14 -39 -16 -37 -3 2 1 23 8 45 7 23 14 39 16 37 3
-2 -1 -23 -8 -45z m792 -71 c-7 -36 -9 -39 -10 -15 -1 33 11 85 16 70 1 -6 -1
-30 -6 -55z m800 -39 c-25 -43 -48 -77 -50 -75 -8 7 82 154 95 154 1 0 -19
-35 -45 -79z m-2290 18 c-6 -16 -10 -18 -10 -7 -1 22 12 55 16 42 2 -6 -1 -22
-6 -35z m675 5 c-4 -14 -9 -24 -12 -21 -3 2 -2 17 2 31 3 15 9 25 11 22 3 -3
2 -17 -1 -32z m4000 11 c-11 -8 -25 -15 -30 -15 -6 1 0 7 14 15 32 19 40 18
16 0z m-56 -25 c-8 -5 -19 -10 -25 -10 -5 0 -3 5 5 10 8 5 20 10 25 10 6 0 3
-5 -5 -10z m-50 -20 c-8 -5 -22 -9 -30 -9 -10 0 -8 3 5 9 27 12 43 12 25 0z
m-4601 -79 c-13 -39 -24 -69 -27 -67 -2 2 7 36 19 75 11 40 23 70 26 67 3 -2
-6 -36 -18 -75z m680 30 c-7 -23 -14 -39 -16 -37 -3 2 1 23 8 45 7 23 14 39
16 37 3 -2 -1 -23 -8 -45z m828 7 c-3 -7 -5 -2 -5 12 0 14 2 19 5 13 2 -7 2
-19 0 -25z m3003 25 c-76 -8 -81 -10 -68 -41 7 -15 13 -29 15 -31 2 -3 72 -8
156 -11 l152 -7 -120 -1 c-170 -2 -192 3 -210 46 -8 19 -15 36 -15 37 0 7 37
13 80 12 36 0 38 -1 10 -4z m520 -23 c-8 -5 -19 -10 -25 -10 -5 0 -3 5 5 10 8
5 20 10 25 10 6 0 3 -5 -5 -10z m-50 -20 c-8 -5 -22 -10 -30 -10 -13 0 -13 1
0 10 8 5 22 10 30 10 13 0 13 -1 0 -10z m-3470 -25 c0 -8 -4 -15 -10 -15 -5 0
-10 7 -10 15 0 8 5 15 10 15 6 0 10 -7 10 -15z m3413 8 c-7 -2 -19 -2 -25 0
-7 3 -2 5 12 5 14 0 19 -2 13 -5z m-2657 -29 c-4 -9 -9 -15 -11 -12 -3 3 -3
13 1 22 4 9 9 15 11 12 3 -3 3 -13 -1 -22z m2612 21 c-9 -9 -98 -22 -98 -14 0
4 17 10 38 12 20 2 43 4 51 5 8 1 12 0 9 -3z m-4222 -51 c-4 -14 -9 -24 -12
-21 -3 2 -2 17 2 31 3 15 9 25 11 22 3 -3 2 -17 -1 -32z m841 -16 c-3 -8 -6
-5 -6 6 -1 11 2 17 5 13 3 -3 4 -12 1 -19z m743 -8 c-6 -12 -14 -19 -17 -17
-2 3 1 15 7 27 6 12 14 19 17 17 2 -3 -1 -15 -7 -27z m-2291 -79 c-11 -40 -23
-70 -26 -68 -2 3 6 37 18 76 11 40 23 70 26 68 2 -3 -6 -37 -18 -76z m680 20
c-7 -23 -14 -39 -16 -37 -3 2 1 23 8 45 7 23 14 39 16 37 3 -2 -1 -23 -8 -45z
m894 -96 c6 -34 6 -36 -3 -15 -6 14 -13 54 -15 90 -4 60 -3 61 4 15 4 -27 11
-68 14 -90z m688 94 c-9 -22 -10 -22 -10 -3 -1 11 2 24 6 27 12 12 14 0 4 -24z
m-10 -66 c-9 -16 -10 -14 -11 12 0 21 3 26 11 18 8 -8 8 -16 0 -30z m-1595
-19 c-4 -14 -9 -24 -12 -21 -3 2 -2 17 2 31 3 15 9 25 11 22 3 -3 2 -17 -1
-32z m3674 6 c0 -5 -7 -10 -16 -10 -8 0 -12 5 -9 10 3 6 10 10 16 10 5 0 9 -4
9 -10z m50 0 c0 -5 -4 -10 -10 -10 -5 0 -10 5 -10 10 0 6 5 10 10 10 6 0 10
-4 10 -10z m65 0 c3 -5 -3 -10 -15 -10 -12 0 -18 5 -15 10 3 6 10 10 15 10 5
0 12 -4 15 -10z m-350 -10 c-3 -5 -27 -9 -53 -8 l-47 1 45 7 c25 4 49 8 53 8
5 1 5 -2 2 -8z m148 3 c-24 -2 -62 -2 -85 0 -24 2 -5 4 42 4 47 0 66 -2 43 -4z
m452 -2 c24 -5 -12 -6 -90 -3 -71 3 -132 6 -134 8 -8 7 185 3 224 -5z m-2435
-22 c0 -6 -4 -7 -10 -4 -5 3 -10 11 -10 16 0 6 5 7 10 4 6 -3 10 -11 10 -16z
m-2299 -30 c-6 -16 -10 -18 -10 -7 -1 22 12 55 16 42 2 -6 -1 -22 -6 -35z
m3964 21 c-38 -10 -79 -18 -90 -18 -11 0 12 8 50 18 39 10 79 18 90 18 11 0
-11 -8 -50 -18z m858 13 c-7 -2 -19 -2 -25 0 -7 3 -2 5 12 5 14 0 19 -2 13 -5z
m92 -18 c54 -17 33 -18 -30 -1 -27 8 -41 14 -30 14 11 0 38 -5 60 -13z m-4245
-45 c-6 -23 -14 -40 -16 -37 -3 3 0 24 7 46 16 54 24 46 9 -9z m1672 -58 c16
-23 57 -65 91 -93 78 -64 88 -74 59 -60 -74 38 -204 194 -201 242 0 8 5 1 11
-16 6 -16 24 -49 40 -73z m-619 -119 c65 -89 146 -154 302 -241 33 -19 51 -31
40 -27 -11 3 -58 27 -104 53 -121 67 -246 191 -294 292 -20 41 -39 89 -42 105
-4 17 9 -6 27 -51 19 -44 51 -103 71 -131z m2087 191 c-25 -8 -52 -13 -60 -11
-8 2 5 8 30 14 65 16 83 13 30 -3z m1257 -15 c48 -17 93 -36 98 -41 7 -8 4 -9
-10 -3 -11 4 -60 22 -110 41 -49 18 -85 33 -78 34 6 0 51 -14 100 -31z m-5082
-29 c-4 -12 -9 -19 -12 -17 -3 3 -2 15 2 27 4 12 9 19 12 17 3 -3 2 -15 -2
-27z m3730 21 c-11 -5 -36 -11 -55 -14 -35 -6 -34 -6 5 8 43 14 84 19 50 6z
m-130 -36 c-22 -8 -49 -13 -60 -13 -11 0 0 6 25 13 59 17 87 17 35 0z m1630
-15 c8 -13 -5 -13 -25 0 -13 8 -13 10 2 10 9 0 20 -4 23 -10z m-4576 -49 c-16
-54 -24 -46 -9 9 6 23 14 40 16 37 3 -3 0 -24 -7 -46z m2846 39 c-11 -5 -27
-9 -35 -9 -9 0 -8 4 5 9 11 5 27 9 35 9 9 0 8 -4 -5 -9z m-3526 -44 c-6 -21
-13 -36 -16 -33 -3 3 0 22 7 42 16 47 23 40 9 -9z m5307 29 c10 -8 15 -14 9
-14 -5 0 -19 6 -29 14 -11 8 -15 15 -10 15 6 0 19 -7 30 -15z m-1839 -1 c-3
-3 -12 -4 -19 -1 -8 3 -5 6 6 6 11 1 17 -2 13 -5z m-57 -14 c-34 -11 -60 -11
-35 0 11 5 29 8 40 8 16 0 15 -2 -5 -8z m1951 -17 c13 -15 12 -15 -8 -4 -24
12 -29 21 -14 21 5 0 15 -7 22 -17z m-2014 1 c-3 -3 -12 -4 -19 -1 -8 3 -5 6
6 6 11 1 17 -2 13 -5z m-82 -20 c-27 -8 -57 -12 -65 -11 -8 2 5 8 30 14 66 16
93 14 35 -3z m2243 -84 c130 -108 283 -315 282 -379 -1 -9 -9 5 -19 31 -52
133 -191 290 -371 421 -24 17 -24 17 9 0 18 -10 63 -43 99 -73z m-2331 64 c-3
-3 -12 -4 -19 -1 -8 3 -5 6 6 6 11 1 17 -2 13 -5z m-3202 -34 c-4 -12 -9 -19
-12 -17 -3 3 -2 15 2 27 4 12 9 19 12 17 3 -3 2 -15 -2 -27z m681 -6 c-4 -14
-9 -24 -12 -21 -3 2 -2 17 2 31 3 15 9 25 11 22 3 -3 2 -17 -1 -32z m2434 20
c-30 -7 -59 -12 -65 -10 -12 4 71 24 100 24 11 0 -5 -6 -35 -14z m-93 -20 c-3
-3 -12 -4 -19 -1 -8 3 -5 6 6 6 11 1 17 -2 13 -5z m-54 -11 c-7 -2 -19 -2 -25
0 -7 3 -2 5 12 5 14 0 19 -2 13 -5z m-50 -10 c-7 -2 -21 -2 -30 0 -10 3 -4 5
12 5 17 0 24 -2 18 -5z m-2943 -53 c-6 -23 -14 -40 -16 -37 -3 3 0 24 7 46 16
54 24 46 9 -9z m2641 32 c-7 -2 -18 1 -23 6 -8 8 -4 9 13 5 13 -4 18 -8 10
-11z m242 11 c-7 -2 -21 -2 -30 0 -10 3 -4 5 12 5 17 0 24 -2 18 -5z m-2196
-25 c-3 -8 -6 -5 -6 6 -1 11 2 17 5 13 3 -3 4 -12 1 -19z m2008 12 c-3 -5 -12
-7 -20 -3 -21 7 -19 13 6 13 11 0 18 -4 14 -10z m120 5 c-23 -8 -85 -10 -85
-3 0 4 21 8 48 7 26 0 43 -2 37 -4z m-2139 -71 c-4 -14 -9 -24 -12 -21 -3 2
-2 17 2 31 3 15 9 25 11 22 3 -3 2 -17 -1 -32z m3454 16 c0 -5 -7 -10 -16 -10
-8 0 -12 5 -9 10 3 6 10 10 16 10 5 0 9 -4 9 -10z m153 3 c-23 -2 -64 -2 -90
0 -26 2 -7 3 42 3 50 0 71 -1 48 -3z m387 -2 c25 -4 -38 -6 -140 -3 -102 2
-189 5 -195 7 -21 7 292 3 335 -4z m-591 -5 c-9 -8 -98 -13 -93 -5 3 5 26 9
51 9 26 0 44 -2 42 -4z m-134 -13 c-16 -2 -54 -8 -83 -12 -29 -5 -50 -5 -45 0
10 10 55 16 113 16 29 0 34 -1 15 -4z m828 0 c-7 -2 -21 -2 -30 0 -10 3 -4 5
12 5 17 0 24 -2 18 -5z m50 -10 c-7 -2 -19 -2 -25 0 -7 3 -2 5 12 5 14 0 19
-2 13 -5z m-4849 -37 c-3 -15 -8 -25 -11 -23 -2 3 -1 17 3 31 3 15 8 25 11 23
2 -3 1 -17 -3 -31z m3826 30 c0 -2 -11 -6 -25 -8 -13 -3 -22 -1 -19 3 5 9 44
13 44 5z m1103 -7 c22 -6 37 -13 34 -15 -3 -3 -27 1 -53 10 -56 17 -39 21 19
5z m-1170 -6 c-7 -2 -21 -2 -30 0 -10 3 -4 5 12 5 17 0 24 -2 18 -5z m-3084
-57 c-6 -26 -13 -45 -16 -43 -2 3 1 26 8 51 6 26 13 45 16 43 2 -3 -1 -26 -8
-51z m3024 47 c-7 -2 -19 -2 -25 0 -7 3 -2 5 12 5 14 0 19 -2 13 -5z m-93 -19
c-25 -8 -52 -13 -60 -11 -8 2 5 8 30 14 65 16 83 13 30 -3z m1427 -13 c54 -39
111 -107 134 -159 29 -67 22 -64 -16 8 -41 75 -85 124 -137 151 -21 11 -38 22
-38 24 0 11 20 3 57 -24z m-1514 -8 c-7 -2 -19 -2 -25 0 -7 3 -2 5 12 5 14 0
19 -2 13 -5z m-3554 -82 c-13 -39 -24 -69 -27 -67 -2 2 7 36 19 75 11 40 23
70 26 67 3 -2 -6 -36 -18 -75z m3496 70 c-11 -5 -40 -11 -65 -14 l-45 -6 45
13 c25 8 54 14 65 14 l20 1 -20 -8z m-122 -28 c-7 -2 -19 -2 -25 0 -7 3 -2 5
12 5 14 0 19 -2 13 -5z m-50 -10 c-7 -2 -21 -2 -30 0 -10 3 -4 5 12 5 17 0 24
-2 18 -5z m-53 -7 c0 -2 -9 -6 -20 -9 -11 -3 -20 -1 -20 4 0 5 9 9 20 9 11 0
20 -2 20 -4z m-2591 -60 c-6 -26 -13 -45 -16 -43 -2 3 1 26 8 51 6 26 13 45
16 43 2 -3 -1 -26 -8 -51z m1621 38 l35 -14 -35 6 c-40 7 -76 24 -50 23 8 0
31 -7 50 -15z m908 11 c-9 -9 -98 -22 -98 -14 0 7 27 13 84 17 11 1 17 0 14
-3z m-115 -22 c-7 -2 -21 -2 -30 0 -10 3 -4 5 12 5 17 0 24 -2 18 -5z m-644
-19 c10 -9 -75 -3 -89 6 -10 7 1 8 35 4 28 -4 52 -8 54 -10z m574 9 c-7 -2
-21 -2 -30 0 -10 3 -4 5 12 5 17 0 24 -2 18 -5z m-75 -10 c-16 -2 -40 -2 -55
0 -16 2 -3 4 27 4 30 0 43 -2 28 -4z m-360 -10 c-21 -2 -57 -2 -80 0 -24 2 -7
4 37 4 44 0 63 -2 43 -4z m220 0 c-32 -2 -84 -2 -115 0 -32 2 -6 3 57 3 63 0
89 -1 58 -3z m-2847 -84 c-6 -16 -10 -18 -10 -7 -1 22 12 55 16 42 2 -6 -1
-22 -6 -35z m688 -23 c-6 -26 -13 -45 -16 -43 -2 3 1 26 8 51 6 26 13 45 16
43 2 -3 -1 -26 -8 -51z m4590 -36 c0 -9 -4 -8 -9 5 -5 11 -9 27 -9 35 0 9 4 8
9 -5 5 -11 9 -27 9 -35z m-5311 -48 c-11 -40 -23 -70 -25 -68 -2 2 6 36 18 75
11 40 23 70 25 68 2 -2 -6 -36 -18 -75z m5985 58 c3 -11 1 -18 -4 -14 -5 3 -9
12 -9 20 0 20 7 17 13 -6z m-5293 -85 c-7 -25 -15 -44 -17 -42 -2 3 1 26 8 51
6 26 14 44 17 42 2 -3 -1 -26 -8 -51z m5297 18 c-3 -10 -5 -4 -5 12 0 17 2 24
5 18 2 -7 2 -21 0 -30z m-672 -108 c-3 -22 -17 -62 -30 -90 -26 -51 -25 -47 6
40 10 28 19 82 20 120 2 61 3 64 7 20 2 -27 1 -68 -3 -90z m682 43 c-3 -7 -5
-2 -5 12 0 14 2 19 5 13 2 -7 2 -19 0 -25z m-6032 -38 c-4 -12 -9 -19 -12 -17
-3 3 -2 15 2 27 4 12 9 19 12 17 3 -3 2 -15 -2 -27z m695 -25 c-7 -25 -15 -44
-17 -42 -2 3 1 26 8 51 6 26 14 44 17 42 2 -3 -1 -26 -8 -51z m5337 13 c-3 -7
-5 -2 -5 12 0 14 2 19 5 13 2 -7 2 -19 0 -25z m-3808 3 c57 -18 150 -76 151
-94 0 -9 -101 -177 -107 -177 -6 0 28 62 65 118 35 52 35 52 16 73 -25 28
-132 79 -166 79 -15 0 -30 5 -33 10 -9 14 5 13 74 -9z m-106 2 c-7 -2 -19 -2
-25 0 -7 3 -2 5 12 5 14 0 19 -2 13 -5z m-98 -38 c-33 -19 -88 -55 -122 -80
-35 -26 -63 -44 -63 -41 0 16 211 156 234 156 6 0 -16 -16 -49 -35z m-2056
-59 c-12 -36 -25 -64 -27 -61 -2 2 6 33 19 69 13 36 25 63 27 61 3 -2 -6 -34
-19 -69z m6055 -37 c-9 -52 -21 -101 -26 -109 -7 -11 -8 -8 -4 10 3 14 11 59
17 100 13 86 18 105 24 98 2 -2 -3 -47 -11 -99z m-5359 -9 c-12 -39 -14 -40
-9 -10 8 49 16 77 21 65 2 -6 -4 -30 -12 -55z m4615 -50 c-12 -23 -23 -40 -25
-38 -3 2 5 23 17 46 11 24 23 41 25 38 2 -2 -5 -23 -17 -46z m-3450 26 c0 -6
-204 -173 -270 -222 -63 -46 -80 -57 -80 -51 0 3 37 32 83 65 45 33 123 94
172 136 91 76 95 79 95 72z m-1899 -47 c-6 -16 -10 -18 -10 -7 -1 22 12 55 16
42 2 -6 -1 -22 -6 -35z m709 -39 c-7 -28 -15 -49 -17 -46 -3 3 0 28 7 56 7 28
15 49 17 46 3 -3 0 -28 -7 -56z m-740 -100 c-16 -85 -19 -93 -15 -43 5 61 24
157 31 150 2 -1 -5 -50 -16 -107z m5340 80 c-6 -12 -14 -19 -17 -17 -2 3 1 15
7 27 6 12 14 19 17 17 2 -3 -1 -15 -7 -27z m740 -40 c-6 -23 -13 -40 -15 -38
-2 2 1 23 7 46 6 24 13 41 15 38 2 -2 -1 -23 -7 -46z m-3714 4 c-4 -9 -9 -15
-11 -12 -3 3 -3 13 1 22 4 9 9 15 11 12 3 -3 3 -13 -1 -22z m2938 -26 c-24
-48 -131 -205 -178 -263 -57 -71 -223 -241 -271 -278 -22 -17 8 15 67 71 125
120 249 272 332 406 60 97 80 123 50 64z m-4587 0 c-3 -8 -6 -5 -6 6 -1 11 2
17 5 13 3 -3 4 -12 1 -19z m1628 -28 c-4 -12 -9 -19 -12 -17 -3 3 -2 15 2 27
4 12 9 19 12 17 3 -3 2 -15 -2 -27z m-1640 -32 c-6 -38 -24 -85 -25 -66 0 16
22 108 27 108 2 0 2 -19 -2 -42z m5350 2 c-4 -12 -9 -19 -12 -17 -3 3 -2 15 2
27 4 12 9 19 12 17 3 -3 2 -15 -2 -27z m-3734 -27 c-12 -20 -14 -14 -5 12 4 9
9 14 11 11 3 -2 0 -13 -6 -23z m3705 -40 c-8 -15 -15 -25 -16 -21 0 12 23 58
27 54 3 -2 -2 -17 -11 -33z m-4461 7 c-3 -5 -44 -30 -90 -55 -46 -25 -86 -51
-88 -58 -2 -7 -3 -6 -3 2 1 8 42 39 91 67 99 58 99 58 90 44z m730 -45 c-10
-25 -19 -44 -21 -42 -2 2 3 25 12 51 9 26 18 45 21 42 3 -3 -3 -25 -12 -51z
m-2318 -57 c-2 -18 -4 -6 -4 27 0 33 2 48 4 33 2 -15 2 -42 0 -60z m700 50
c-3 -8 -6 -5 -6 6 -1 11 2 17 5 13 3 -3 4 -12 1 -19z m5304 -56 c-17 -33 -35
-63 -41 -67 -5 -3 7 25 28 64 45 84 55 87 13 3z m-4121 26 c0 -8 -14 -13 -33
-14 l-32 -1 30 13 c38 16 35 16 35 2z m-1210 -98 c-11 -41 -17 -57 -14 -35 9
66 28 141 31 125 2 -8 -6 -49 -17 -90z m1105 60 c-22 -10 -53 -21 -70 -24 -16
-4 -3 4 30 18 71 28 97 32 40 6z m512 -22 c-3 -7 -5 -2 -5 12 0 14 2 19 5 13
2 -7 2 -19 0 -25z m-420 -20 c-3 -7 -5 -2 -5 12 0 14 2 19 5 13 2 -7 2 -19 0
-25z m-1870 0 c-3 -8 -6 -5 -6 6 -1 11 2 17 5 13 3 -3 4 -12 1 -19z m1528 -9
c34 -1 41 -3 21 -6 -41 -6 -110 5 -132 22 -16 12 -13 12 21 0 22 -8 63 -15 90
-16z m142 15 c-3 -3 -12 -4 -19 -1 -8 3 -5 6 6 6 11 1 17 -2 13 -5z m-44 -11
c-7 -2 -19 -2 -25 0 -7 3 -2 5 12 5 14 0 19 -2 13 -5z m654 -35 c-3 -7 -5 -2
-5 12 0 14 2 19 5 13 2 -7 2 -19 0 -25z m-2270 -25 c-3 -10 -5 -4 -5 12 0 17
2 24 5 18 2 -7 2 -21 0 -30z m1873 -1 c0 -15 5 -44 11 -65 6 -21 8 -44 6 -50
-2 -7 -9 15 -16 48 -6 33 -14 71 -17 83 -3 15 -1 21 6 17 5 -3 10 -18 10 -33z
m4053 7 c-10 -17 -52 -72 -94 -123 -146 -176 -396 -382 -594 -490 -57 -31 -55
-29 113 81 208 138 409 322 527 481 64 87 77 101 48 51z m-3662 -42 c-8 -8
-11 -5 -11 9 0 27 14 41 18 19 2 -9 -1 -22 -7 -28z m-2254 -19 c-3 -8 -6 -5
-6 6 -1 11 2 17 5 13 3 -3 4 -12 1 -19z m630 -10 c-3 -7 -5 -2 -5 12 0 14 2
19 5 13 2 -7 2 -19 0 -25z m1633 -21 c0 -5 -4 -5 -10 -2 -5 3 -10 14 -10 23 0
15 2 15 10 2 5 -8 10 -19 10 -23z m-2202 -134 c16 -30 15 -42 -2 -18 -17 26
-56 131 -56 153 0 9 11 -12 23 -48 13 -36 29 -75 35 -87z m559 95 c-3 -7 -5
-2 -5 12 0 14 2 19 5 13 2 -7 2 -19 0 -25z m1640 -15 c-3 -10 -5 -4 -5 12 0
17 2 24 5 18 2 -7 2 -21 0 -30z m-357 -28 c0 -5 -5 -3 -10 5 -5 8 -10 20 -10
25 0 6 5 3 10 -5 5 -8 10 -19 10 -25z m-1301 -69 c-9 -8 -10 -5 -5 14 3 14 7
39 8 55 1 20 3 16 5 -14 3 -26 -1 -48 -8 -55z m1715 -67 c14 -27 14 -30 1 -15
-17 22 -55 120 -54 139 0 7 9 -11 18 -39 10 -27 26 -66 35 -85z m-365 19 c16
-38 28 -68 25 -68 -7 0 -74 149 -73 163 0 7 4 3 9 -8 4 -11 22 -50 39 -87z
m2834 34 c-33 -28 -106 -73 -88 -54 13 13 108 81 115 81 3 0 -9 -12 -27 -27z
m-4186 -34 c-3 -7 -5 -2 -5 12 0 14 2 19 5 13 2 -7 2 -19 0 -25z m-443 -75
c21 -24 61 -58 88 -75 26 -17 46 -34 43 -36 -16 -16 -166 121 -198 180 l-18
33 23 -29 c13 -17 41 -49 62 -73z m486 31 c0 -2 -9 0 -20 6 -11 6 -20 13 -20
16 0 2 9 0 20 -6 11 -6 20 -13 20 -16z m4035 7 c-16 -14 -105 -63 -105 -58 0
5 101 66 110 67 2 0 0 -4 -5 -9z m-3745 -11 c0 -5 -19 -9 -42 -9 l-43 2 40 7
c22 4 41 8 43 9 1 0 2 -3 2 -9z m57 4 c-3 -3 -12 -4 -19 -1 -8 3 -5 6 6 6 11
1 17 -2 13 -5z m56 -1 c-7 -2 -21 -2 -30 0 -10 3 -4 5 12 5 17 0 24 -2 18 -5z
m60 0 c-7 -2 -21 -2 -30 0 -10 3 -4 5 12 5 17 0 24 -2 18 -5z m-268 -18 c6 -2
-26 -3 -70 -4 -44 0 -89 4 -100 8 -19 8 148 4 170 -4z m1635 -123 c22 -22 -34
21 -72 55 -18 16 -42 40 -53 54 -17 20 77 -62 125 -109z m-1380 70 c-12 -16
-41 -39 -63 -51 -23 -12 -33 -16 -22 -9 11 7 38 31 60 54 46 47 57 49 25 6z
m925 -8 c52 -88 175 -242 252 -314 43 -40 69 -68 57 -62 -60 32 -276 291 -333
400 -21 40 -3 23 24 -24z m2531 11 c-11 -8 -24 -15 -30 -15 -5 0 -1 7 10 15
10 8 24 14 29 14 6 0 1 -6 -9 -14z m-60 -30 c-20 -15 -36 -19 -36 -10 0 5 38
23 50 24 3 0 -4 -6 -14 -14z m-76 -34 c-19 -10 -46 -21 -60 -25 -14 -3 -2 5
25 18 58 28 87 34 35 7z m-4015 -47 c33 -13 55 -23 49 -23 -19 -1 -128 39
-139 51 -7 8 -5 9 10 3 11 -4 47 -18 80 -31z m580 27 c-17 -15 -147 -58 -219
-71 -78 -14 -244 -8 -273 10 -16 10 -15 11 7 5 116 -27 299 -11 416 38 65 27
83 32 69 18z m1584 -45 c24 -16 69 -40 100 -52 31 -13 49 -24 40 -24 -23 0
-149 65 -184 95 -35 30 -19 24 44 -19z m1751 24 c-8 -5 -19 -10 -25 -10 -5 0
-3 5 5 10 8 5 20 10 25 10 6 0 3 -5 -5 -10z m-85 -30 c-27 -10 -57 -18 -65
-18 -8 0 8 8 35 18 28 10 57 18 65 18 8 0 -7 -8 -35 -18z m-88 -26 c-3 -3 -12
-4 -19 -1 -8 3 -5 6 6 6 11 1 17 -2 13 -5z m-52 -14 c-11 -5 -27 -9 -35 -9 -9
0 -8 4 5 9 11 5 27 9 35 9 9 0 8 -4 -5 -9z m-62 -17 c-7 -2 -21 -2 -30 0 -10
3 -4 5 12 5 17 0 24 -2 18 -5z m-60 -10 c-7 -2 -19 -2 -25 0 -7 3 -2 5 12 5
14 0 19 -2 13 -5z m-1216 -9 c-3 -3 -12 -4 -19 -1 -8 3 -5 6 6 6 11 1 17 -2
13 -5z m1166 -1 c-7 -2 -21 -2 -30 0 -10 3 -4 5 12 5 17 0 24 -2 18 -5z
m-1106 -9 c-3 -3 -12 -4 -19 -1 -8 3 -5 6 6 6 11 1 17 -2 13 -5z m1046 -1 c-7
-2 -21 -2 -30 0 -10 3 -4 5 12 5 17 0 24 -2 18 -5z m-950 -10 c-13 -2 -35 -2
-50 0 -16 2 -5 4 22 4 28 0 40 -2 28 -4z m822 -3 c-3 -5 -27 -9 -53 -8 l-47 1
45 7 c25 4 49 8 53 8 5 1 5 -2 2 -8z m58 3 c-7 -2 -21 -2 -30 0 -10 3 -4 5 12
5 17 0 24 -2 18 -5z m-765 -10 c-16 -2 -40 -2 -55 0 -16 2 -3 4 27 4 30 0 43
-2 28 -4z m592 -3 c0 -6 -33 -9 -82 -8 l-83 2 75 6 c41 4 78 7 83 8 4 1 7 -2
7 -8z m1560 5 c0 -6 -217 -115 -227 -114 -6 0 214 116 225 118 1 1 2 -1 2 -4z
m-1992 -12 c-21 -2 -57 -2 -80 0 -24 2 -7 4 37 4 44 0 63 -2 43 -4z m84 -5
c-9 -9 -15 -9 -24 0 -9 9 -7 12 12 12 19 0 21 -3 12 -12z m58 8 c0 -11 -19
-15 -25 -6 -3 5 1 10 9 10 9 0 16 -2 16 -4z m53 -3 c-7 -2 -19 -2 -25 0 -7 3
-2 5 12 5 14 0 19 -2 13 -5z m60 0 c-7 -2 -19 -2 -25 0 -7 3 -2 5 12 5 14 0
19 -2 13 -5z m1477 -118 c-14 -8 -29 -14 -35 -14 -5 0 1 6 15 14 14 8 30 14
35 14 6 0 -1 -6 -15 -14z m-55 -23 c-26 -22 -248 -96 -268 -89 -6 2 18 11 53
20 36 9 97 29 135 46 72 30 96 37 80 23z m-2414 -40 c-13 -4 -79 16 -85 27 -3
4 18 0 45 -8 28 -9 46 -17 40 -19z m52 -9 c-7 -2 -19 -2 -25 0 -7 3 -2 5 12 5
14 0 19 -2 13 -5z m112 -24 c13 -6 4 -7 -25 -3 -25 3 -52 10 -60 15 -18 11 55
0 85 -12z m58 -16 c-7 -2 -19 -2 -25 0 -7 3 -2 5 12 5 14 0 19 -2 13 -5z m147
-27 c58 -13 98 -24 89 -25 -21 -1 -211 37 -217 44 -10 9 23 4 128 -19z m1744
14 c-30 -12 -315 -60 -349 -59 -17 1 22 9 85 20 63 10 147 25 185 32 81 17
109 19 79 7z m-1601 -47 c-7 -2 -19 -2 -25 0 -7 3 -2 5 12 5 14 0 19 -2 13 -5z
m60 -10 c-7 -2 -21 -2 -30 0 -10 3 -4 5 12 5 17 0 24 -2 18 -5z m60 -10 c-7
-2 -21 -2 -30 0 -10 3 -4 5 12 5 17 0 24 -2 18 -5z m1047 -4 c-25 -4 -63 -7
-85 -7 l-40 1 45 7 c25 4 63 7 85 7 l40 0 -45 -8z m-967 -6 c-13 -2 -33 -2
-45 0 -13 2 -3 4 22 4 25 0 35 -2 23 -4z m120 -10 c-13 -2 -35 -2 -50 0 -16 2
-5 4 22 4 28 0 40 -2 28 -4z m685 0 c-16 -2 -40 -2 -55 0 -16 2 -3 4 27 4 30
0 43 -2 28 -4z m-530 -10 c-21 -2 -55 -2 -75 0 -21 2 -4 4 37 4 41 0 58 -2 38
-4z m257 -3 c-3 -5 -10 -10 -16 -10 -5 0 -9 5 -9 10 0 6 7 10 16 10 8 0 12 -4
9 -10z m143 3 c-21 -2 -57 -2 -80 0 -24 2 -7 4 37 4 44 0 63 -2 43 -4z m-305
-10 c-7 -2 -19 -2 -25 0 -7 3 -2 5 12 5 14 0 19 -2 13 -5z m60 0 c-7 -2 -21
-2 -30 0 -10 3 -4 5 12 5 17 0 24 -2 18 -5z m50 0 c-7 -2 -19 -2 -25 0 -7 3
-2 5 12 5 14 0 19 -2 13 -5z"/>
<path d="M2650 9750 c-9 -6 -10 -10 -3 -10 6 0 15 5 18 10 8 12 4 12 -15 0z"/>
<path d="M9586 7257 c3 -10 9 -15 12 -12 3 3 0 11 -7 18 -10 9 -11 8 -5 -6z"/>
</g>
</svg>
