<?xml version="1.0" standalone="no"?>
<!DOCTYPE svg PUBLIC "-//W3C//DTD SVG 20010904//EN"
 "http://www.w3.org/TR/2001/REC-SVG-20010904/DTD/svg10.dtd">
<svg version="1.0" xmlns="http://www.w3.org/2000/svg"
 width="1024.000000pt" height="1024.000000pt" viewBox="0 0 1024.000000 1024.000000"
 preserveAspectRatio="xMidYMid meet">

<g transform="translate(0.000000,1024.000000) scale(0.100000,-0.100000)"
stroke="none" fill="#950f0f">
<path d="M3285 9878 c-60 -4 -116 -5 -122 -3 -7 2 -13 0 -13 -5 0 -6 -11 -10
-25 -10 -14 0 -77 -12 -140 -26 -63 -14 -120 -22 -126 -18 -7 4 -9 3 -6 -3 7
-12 -129 -57 -149 -49 -8 3 -13 2 -10 -3 8 -13 -70 -42 -90 -34 -13 5 -15 3
-9 -7 6 -10 4 -12 -9 -7 -9 4 -15 3 -12 -2 8 -12 -53 -33 -68 -24 -6 3 -8 2
-4 -2 11 -11 -110 -77 -125 -69 -7 4 -9 4 -5 -1 5 -4 -27 -29 -70 -55 -76 -46
-213 -141 -240 -167 -8 -7 -18 -10 -24 -7 -6 4 -8 2 -4 -4 8 -13 -43 -54 -57
-45 -5 3 -7 1 -3 -5 6 -10 -67 -76 -76 -67 -3 3 -13 -5 -24 -17 l-19 -23 25
20 25 20 -24 -27 c-13 -15 -28 -25 -34 -21 -6 3 -7 1 -4 -4 8 -13 -17 -36 -27
-25 -4 4 -6 0 -4 -8 2 -8 -3 -14 -10 -12 -8 1 -11 -2 -8 -7 7 -11 -19 -33 -28
-23 -4 4 -6 0 -4 -8 1 -8 -2 -14 -9 -13 -8 2 -10 -4 -6 -14 5 -12 2 -15 -9
-11 -10 4 -15 1 -14 -10 0 -9 -5 -16 -12 -14 -8 1 -11 -2 -8 -7 7 -11 -19 -33
-28 -23 -4 4 -6 3 -5 -3 5 -16 -21 -56 -32 -50 -5 4 -8 1 -7 -7 2 -7 -2 -12
-8 -11 -7 1 -11 -5 -10 -15 0 -9 -5 -16 -12 -14 -8 1 -10 -2 -7 -8 8 -13 -24
-52 -35 -45 -4 3 -7 -3 -6 -13 0 -9 -4 -16 -10 -15 -6 1 -11 -4 -11 -10 0 -19
-34 -68 -43 -62 -4 3 -7 -3 -6 -13 0 -9 -4 -16 -10 -15 -7 1 -11 -5 -10 -15 0
-9 -5 -16 -12 -14 -8 1 -11 -2 -7 -7 3 -6 -3 -19 -15 -31 -11 -11 -20 -22 -20
-25 0 -3 0 -10 0 -16 0 -5 -5 -7 -12 -3 -6 4 -9 3 -6 -2 9 -15 -11 -56 -23
-48 -8 4 -9 3 -5 -4 10 -16 -12 -54 -26 -46 -7 4 -8 3 -4 -4 10 -16 -12 -54
-26 -46 -7 5 -9 2 -6 -7 7 -19 -10 -62 -22 -54 -6 4 -7 -1 -3 -11 4 -12 3 -15
-5 -10 -8 4 -10 2 -6 -8 3 -8 -3 -23 -14 -34 -11 -11 -18 -22 -16 -25 7 -7
-35 -97 -45 -97 -6 0 -7 -7 -4 -17 5 -12 3 -14 -7 -8 -8 5 -11 4 -6 -3 8 -14
-44 -143 -55 -136 -5 3 -6 -2 -3 -10 3 -9 1 -16 -5 -16 -6 0 -8 -7 -4 -17 5
-11 3 -14 -6 -8 -10 6 -11 2 -6 -15 5 -15 4 -20 -4 -16 -7 5 -9 1 -5 -8 3 -9
1 -16 -5 -16 -6 0 -8 -7 -5 -15 4 -8 2 -15 -2 -15 -5 0 -10 -12 -10 -26 -3
-38 -45 -164 -56 -164 -5 0 -7 -4 -4 -8 7 -12 -15 -102 -25 -102 -6 0 -7 -5
-4 -10 8 -13 -27 -160 -37 -160 -4 0 -5 -6 -2 -14 8 -21 -25 -179 -39 -188 -9
-6 -9 -8 0 -8 13 0 6 -72 -7 -78 -4 -1 -5 -14 -2 -27 3 -16 0 -25 -9 -25 -9 0
-10 -3 -2 -11 6 -6 7 -26 3 -52 -5 -23 -11 -84 -15 -134 -5 -59 -11 -93 -19
-93 -6 0 -5 -4 3 -9 7 -5 10 -14 6 -21 -10 -16 -8 -542 3 -647 5 -56 4 -83 -3
-83 -6 0 -6 -3 1 -8 7 -4 12 -25 12 -47 0 -22 3 -48 7 -58 4 -9 5 -31 3 -47
-3 -17 0 -30 5 -30 5 0 7 -20 5 -45 -2 -25 0 -46 5 -48 4 -1 8 -28 10 -59 1
-32 6 -58 11 -58 4 0 6 -13 4 -30 -3 -16 -1 -30 2 -30 4 0 10 -23 14 -51 16
-118 98 -449 162 -652 19 -59 31 -113 28 -119 -4 -7 -2 -8 4 -4 8 4 13 -1 14
-13 0 -12 1 -27 2 -33 1 -7 5 -16 9 -19 5 -4 10 -18 10 -32 1 -14 6 -23 11
-19 5 3 7 -5 4 -16 -4 -12 -3 -20 1 -17 10 5 63 -144 55 -156 -3 -5 -1 -9 5
-9 10 0 44 -82 44 -106 0 -8 5 -14 10 -14 5 0 6 -7 3 -16 -3 -8 -2 -13 3 -10
11 7 33 -52 25 -65 -3 -5 0 -9 6 -9 7 0 9 -7 6 -16 -3 -8 -2 -13 3 -10 11 7
33 -53 24 -67 -4 -6 -1 -7 7 -2 10 6 12 3 8 -13 -4 -14 -2 -20 5 -15 7 4 8 0
4 -11 -4 -11 -3 -15 4 -10 6 3 10 -1 9 -12 -4 -34 0 -45 11 -38 7 4 10 1 7 -7
-3 -8 1 -18 8 -24 16 -13 30 -60 15 -51 -7 5 -9 1 -5 -8 3 -9 11 -13 17 -9 6
4 8 0 4 -10 -3 -10 -2 -17 3 -17 5 0 6 -7 3 -17 -4 -10 -2 -14 4 -10 13 8 46
-70 37 -85 -4 -6 -2 -8 3 -5 6 4 14 0 17 -9 8 -22 8 -26 -4 -19 -6 3 -7 -1 -4
-9 3 -9 11 -13 17 -9 6 4 8 0 4 -10 -3 -10 -2 -17 3 -17 5 0 6 -7 3 -17 -5
-12 -3 -14 7 -8 10 6 12 4 7 -9 -4 -9 -3 -15 2 -12 11 7 33 -52 25 -65 -3 -5
0 -9 6 -9 7 0 9 -7 6 -16 -4 -10 -2 -13 6 -8 8 5 9 2 5 -10 -4 -9 -3 -14 2
-11 12 7 24 -31 15 -46 -4 -7 -3 -9 3 -6 12 8 46 -69 38 -84 -4 -5 -2 -9 3 -9
13 0 73 -140 65 -153 -3 -5 -2 -7 4 -4 5 4 16 -13 24 -36 8 -23 12 -42 9 -43
-3 0 3 -8 13 -18 9 -10 15 -22 12 -27 -4 -5 -2 -9 2 -9 13 0 44 -80 37 -92 -5
-7 -2 -8 6 -3 10 6 12 4 7 -9 -4 -9 -3 -15 2 -12 11 7 33 -53 24 -67 -3 -5 -1
-7 5 -3 13 8 26 -29 16 -45 -4 -7 -3 -9 3 -6 12 7 26 -20 18 -33 -3 -4 2 -11
11 -14 8 -3 14 -14 13 -23 -3 -31 1 -44 10 -39 4 3 13 -6 20 -20 13 -30 14
-45 1 -24 -6 9 -10 10 -10 3 0 -7 8 -17 19 -22 10 -6 21 -20 24 -31 3 -11 1
-18 -4 -14 -5 3 -6 -2 -3 -10 3 -9 10 -14 14 -11 11 7 42 -74 34 -87 -4 -6 -2
-8 3 -5 13 8 24 -17 17 -37 -3 -8 -1 -17 5 -21 7 -4 9 1 6 12 -3 10 4 0 15
-22 11 -22 17 -46 15 -53 -3 -8 0 -10 7 -6 8 5 9 2 5 -10 -4 -9 -3 -15 2 -12
11 7 23 -22 14 -36 -4 -7 -1 -8 7 -3 10 6 12 3 8 -13 -4 -12 -3 -20 1 -17 11
6 33 -44 25 -57 -4 -6 -2 -8 3 -5 13 8 26 -20 16 -35 -3 -7 -1 -8 5 -4 11 7
16 -7 15 -41 -1 -7 3 -11 7 -8 11 7 22 -24 13 -37 -3 -6 -1 -8 4 -5 6 4 23
-20 38 -56 16 -34 52 -111 81 -171 29 -60 51 -113 48 -118 -3 -4 -1 -8 4 -8 9
0 44 -69 42 -84 -1 -5 3 -12 8 -15 17 -11 43 -71 36 -83 -4 -6 -3 -8 3 -5 13
8 26 -20 16 -35 -3 -6 -2 -8 4 -5 12 8 65 -101 57 -116 -4 -7 -4 -9 1 -5 10 9
46 -46 48 -73 1 -10 5 -15 9 -13 7 5 13 -19 9 -39 -1 -5 3 -6 8 -3 11 7 23
-22 14 -36 -3 -6 -2 -8 4 -5 10 6 50 -70 45 -86 -1 -5 2 -6 7 -3 11 7 23 -22
14 -36 -4 -7 -1 -8 7 -3 10 6 12 4 7 -9 -5 -11 -3 -15 5 -10 8 5 9 2 5 -10 -4
-9 -3 -15 2 -12 10 7 23 -22 16 -34 -3 -5 0 -12 6 -16 8 -4 9 -3 5 4 -4 7 -5
12 -2 12 11 0 66 -122 59 -133 -3 -5 -2 -7 4 -4 5 4 16 -6 24 -21 8 -15 40
-73 72 -130 32 -57 55 -108 51 -114 -4 -7 -3 -8 5 -4 6 4 14 0 18 -11 4 -10
17 -35 31 -55 14 -22 21 -42 16 -50 -4 -7 -3 -9 1 -5 11 10 76 -92 68 -107 -3
-6 -2 -8 2 -3 5 4 19 -11 33 -34 17 -29 28 -39 40 -34 87 33 312 108 329 109
11 1 20 3 18 6 -2 3 51 26 118 51 67 26 131 50 141 54 15 7 18 5 12 -6 -4 -8
-1 -6 8 5 8 10 26 19 39 20 14 0 23 4 21 8 -5 8 56 29 67 22 5 -3 9 -1 9 4 0
12 99 54 111 46 5 -3 9 0 9 6 0 7 6 10 13 7 6 -2 17 3 23 11 5 7 22 15 36 15
14 1 24 5 21 10 -4 7 15 11 45 10 7 -1 11 2 7 5 -9 9 85 43 97 36 7 -4 8 -2 4
4 -7 11 -3 14 27 16 6 1 14 3 17 6 14 14 103 50 111 45 5 -4 9 -1 9 5 0 7 7 9
16 6 8 -3 13 -2 10 3 -7 11 22 23 36 14 7 -3 8 -1 4 5 -7 11 7 16 41 15 7 -1
10 3 7 8 -5 9 0 11 29 13 6 1 14 4 17 8 10 12 205 100 227 101 11 1 19 5 17 8
-6 10 26 20 38 12 6 -3 8 -1 5 4 -8 13 70 46 85 37 6 -4 8 -3 5 3 -8 13 68 47
84 38 7 -5 10 -4 6 2 -8 13 20 26 35 16 6 -3 8 -2 5 4 -8 13 41 36 55 27 6 -4
8 -2 5 3 -8 13 20 26 36 16 7 -3 9 -2 4 2 -10 11 70 48 85 39 6 -4 8 -3 5 3
-8 13 20 26 35 16 7 -4 8 -1 3 7 -6 10 -4 12 9 7 9 -4 15 -3 12 2 -7 11 50 35
64 26 6 -3 9 -1 8 7 -2 8 6 13 19 12 12 0 19 4 16 9 -4 6 1 8 11 4 11 -5 15
-3 10 5 -5 8 -2 9 10 5 11 -5 15 -3 10 5 -5 8 -2 9 10 5 9 -4 15 -3 12 2 -6 9
44 35 52 26 3 -3 -1 -5 -8 -5 -7 0 -10 -3 -6 -7 4 -4 15 3 25 16 11 14 28 24
44 24 15 0 24 3 22 7 -7 11 24 22 37 13 6 -3 8 -1 5 4 -8 13 20 26 35 16 6 -3
8 -1 5 4 -8 13 20 26 35 16 6 -3 8 -2 5 4 -8 13 41 36 55 27 6 -4 8 -2 5 3 -8
13 20 26 35 16 6 -3 8 -1 5 4 -8 13 20 26 35 16 6 -3 8 -1 5 4 -8 13 20 26 35
16 7 -3 8 -1 4 5 -7 11 -3 14 27 16 6 1 17 7 22 14 6 7 20 14 32 15 12 0 20 4
17 8 -6 10 26 20 38 12 6 -3 8 -2 5 4 -5 9 142 83 150 76 2 -2 12 6 24 18 11
11 27 18 35 15 8 -3 13 -2 10 3 -7 11 22 23 36 14 6 -3 8 -1 5 4 -8 13 20 26
35 16 7 -4 8 -1 3 7 -5 8 -3 11 5 8 8 -2 22 4 33 15 10 10 25 16 33 13 8 -3
13 -2 10 3 -7 11 22 23 36 14 7 -4 8 -1 4 6 -7 11 15 24 37 21 4 0 15 6 23 15
9 8 20 12 26 9 6 -4 8 -2 5 3 -8 13 20 26 35 16 6 -3 8 -1 5 4 -8 13 17 24 37
17 8 -3 17 -1 21 5 4 7 -1 9 -12 5 -17 -5 -17 -5 0 6 9 6 22 8 29 4 6 -4 8 -3
5 3 -8 13 20 26 35 16 6 -3 8 -1 5 4 -8 12 20 26 34 17 5 -3 8 0 7 7 -2 6 3
14 11 17 9 3 11 0 7 -9 -4 -8 1 -4 11 9 10 13 28 24 40 25 12 0 20 4 17 8 -6
10 26 20 38 12 6 -3 8 -2 5 4 -6 10 70 50 85 45 5 -1 8 3 8 9 0 6 7 9 15 6 8
-4 17 -1 21 5 4 7 3 8 -4 4 -7 -4 -12 -5 -12 -2 0 11 81 46 92 40 6 -4 8 -3 5
3 -8 13 20 26 36 16 7 -3 9 -3 5 2 -10 11 50 47 64 39 7 -5 8 -2 3 6 -6 10 -4
12 9 7 10 -4 15 -3 11 3 -6 9 8 14 28 11 5 -1 6 3 3 8 -7 11 22 23 36 14 6 -3
8 -1 4 5 -3 6 6 17 21 25 38 19 99 54 128 73 13 9 29 13 34 10 5 -4 13 -1 17
5 4 8 3 9 -4 5 -7 -4 -12 -5 -12 -2 0 10 102 66 111 61 5 -4 8 -1 7 5 -2 7 11
19 27 28 38 21 237 160 289 201 21 17 42 28 47 25 5 -3 8 0 7 8 -2 7 5 12 14
12 10 -1 16 2 13 6 -3 5 28 33 67 63 40 31 86 67 102 81 16 14 33 23 39 19 5
-3 7 -1 3 5 -8 13 43 54 57 45 5 -3 7 -2 4 4 -7 11 111 120 125 115 4 -1 7 2
6 7 -4 12 215 230 225 224 4 -2 6 1 5 9 -2 7 3 12 10 10 6 -1 11 2 10 6 -2 4
24 39 57 77 33 38 76 87 95 109 40 45 72 86 110 136 14 18 33 42 43 54 10 11
26 33 35 49 9 15 23 27 31 27 8 0 12 3 8 6 -8 9 71 124 85 124 6 0 9 3 5 6 -8
9 53 105 63 99 5 -3 8 3 7 12 -1 22 31 73 46 73 6 0 7 3 4 6 -10 11 13 45 25
38 8 -5 9 -1 5 10 -4 10 1 24 12 35 11 11 17 22 14 24 -8 9 17 48 27 42 6 -3
7 1 4 9 -3 8 3 23 13 34 10 10 19 25 21 33 2 8 10 19 17 25 8 6 12 13 10 16
-9 9 25 79 35 73 6 -3 7 1 4 9 -3 9 -1 16 6 16 6 0 9 4 5 9 -3 5 8 36 25 69
16 33 30 63 30 67 0 16 53 125 61 125 5 0 6 7 3 15 -4 8 -2 15 4 15 5 0 10 6
9 13 -1 32 4 48 13 42 6 -3 7 1 4 9 -3 9 -1 16 5 16 6 0 8 7 5 15 -4 8 -1 15
6 15 6 0 8 4 5 10 -8 12 34 150 46 150 4 0 6 7 3 15 -4 8 -1 15 6 15 6 0 8 5
5 11 -8 12 14 99 25 99 3 0 5 14 2 30 -3 19 0 30 7 30 7 0 9 4 6 10 -9 14 6
81 16 74 5 -3 6 9 3 26 -4 16 -2 30 3 30 5 0 8 13 5 30 -2 16 0 30 5 30 6 0 8
11 5 25 -2 14 0 25 7 25 6 0 8 11 5 30 -4 17 -3 30 2 30 5 0 7 21 5 46 -2 32
0 44 8 40 6 -4 11 -2 11 3 0 6 -3 11 -7 11 -5 0 -6 22 -5 50 2 27 8 50 14 50
5 0 6 4 3 10 -11 17 -11 400 0 400 6 0 4 4 -3 9 -8 5 -13 23 -12 47 2 22 0 46
-3 54 -10 30 -28 180 -22 190 3 6 1 10 -6 10 -7 0 -10 11 -7 30 3 17 1 30 -3
30 -4 0 -10 19 -14 43 -4 23 -27 102 -51 176 -23 74 -41 138 -38 143 3 4 0 8
-6 8 -7 0 -9 7 -6 16 3 8 2 13 -3 10 -12 -8 -33 53 -24 68 3 6 3 8 -2 4 -11
-10 -47 71 -38 85 3 5 1 7 -4 4 -13 -8 -26 20 -16 35 3 7 1 8 -5 4 -12 -7 -16
5 -13 33 2 7 -2 10 -8 7 -12 -8 -45 50 -36 64 3 5 0 12 -6 16 -8 5 -10 2 -5
-7 4 -8 1 -5 -8 5 -8 10 -13 23 -9 29 3 6 2 7 -4 4 -12 -7 -46 49 -38 63 4 6
1 9 -7 8 -7 -2 -13 6 -13 17 0 11 -7 20 -15 20 -8 0 -14 8 -14 18 1 9 -2 15
-6 12 -12 -7 -51 45 -43 58 3 6 1 7 -5 3 -11 -7 -17 7 -12 29 1 5 -2 7 -6 3
-10 -11 -35 12 -27 25 3 5 1 7 -4 4 -15 -9 -47 29 -37 45 4 7 4 10 -1 6 -11
-11 -36 12 -28 26 3 6 3 8 -2 4 -11 -10 -37 11 -29 23 3 5 0 8 -8 7 -7 -2 -12
3 -10 10 1 8 -1 11 -6 8 -12 -7 -54 38 -45 49 5 4 2 5 -5 1 -8 -5 -20 0 -30
11 -9 11 -60 52 -112 92 -52 41 -100 79 -105 85 -6 6 -16 12 -23 14 -24 5 -92
54 -86 63 3 5 -2 6 -10 3 -8 -3 -23 3 -34 13 -10 10 -25 19 -33 21 -8 2 -19
10 -25 17 -6 8 -14 12 -17 9 -9 -10 -48 16 -41 28 4 7 2 8 -5 4 -13 -9 -101
31 -101 45 0 6 -4 8 -9 5 -12 -8 -112 34 -106 44 3 4 -1 8 -8 7 -32 -1 -48 4
-42 13 3 6 -1 7 -9 4 -9 -3 -16 -1 -16 5 0 6 -7 8 -15 5 -8 -4 -15 -2 -15 4 0
6 -10 8 -22 5 -19 -4 -20 -3 -8 7 12 9 11 10 -7 5 -22 -6 -103 13 -103 24 0 3
-17 6 -37 7 -20 0 -39 6 -41 12 -2 7 -8 10 -13 6 -14 -8 -213 28 -221 40 -5 7
-8 7 -8 1 0 -6 -26 -9 -65 -7 -39 2 -65 8 -65 15 0 7 -3 8 -10 1 -5 -5 -40 -7
-80 -4 -39 3 -74 3 -76 0 -3 -2 -24 -5 -47 -7 -301 -17 -645 -105 -937 -241
-25 -12 -52 -22 -60 -24 -8 -2 -17 -6 -20 -10 -3 -3 -12 -8 -19 -10 -8 -2 -23
-11 -33 -20 -20 -20 -43 -24 -32 -6 4 7 3 8 -5 4 -6 -4 -9 -11 -6 -15 6 -10
-43 -33 -55 -26 -5 3 -12 0 -16 -6 -4 -8 -3 -9 4 -5 7 4 12 5 12 2 0 -2 -26
-19 -57 -37 -70 -39 -227 -143 -266 -176 -16 -13 -34 -20 -39 -17 -7 4 -8 2
-4 -4 7 -11 -6 -17 -27 -13 -5 1 -6 -3 -3 -8 8 -12 -43 -53 -57 -44 -5 3 -7 1
-3 -5 7 -12 -68 -75 -78 -64 -4 4 -6 1 -4 -7 2 -7 -2 -15 -8 -18 -6 -2 -14 8
-16 22 -3 14 -1 25 6 25 6 0 5 4 -3 9 -8 5 -14 28 -15 55 0 25 -4 46 -8 46 -5
0 -8 8 -8 18 0 19 -65 282 -80 322 -5 14 -25 69 -45 123 -19 54 -33 103 -29
109 4 6 3 8 -4 5 -11 -7 -45 77 -34 87 3 3 1 6 -5 6 -9 0 -48 78 -55 110 -2 8
-6 17 -9 20 -3 3 -32 52 -65 110 -110 192 -209 334 -312 450 -22 25 -38 48
-35 53 2 4 -1 6 -9 5 -7 -2 -12 4 -10 12 2 8 0 12 -4 8 -9 -10 -35 12 -28 23
3 5 1 8 -4 7 -5 -2 -43 29 -84 67 -82 77 -104 95 -142 120 -14 10 -23 21 -20
26 3 5 2 8 -3 7 -13 -4 -123 66 -123 78 0 7 -8 11 -17 10 -10 0 -17 4 -16 11
2 8 -4 10 -14 6 -10 -4 -14 -2 -10 4 4 6 -1 10 -11 9 -9 0 -16 5 -14 12 1 8
-2 11 -8 7 -11 -7 -70 25 -70 38 0 4 -4 5 -10 2 -14 -9 -52 14 -44 27 5 7 1 9
-9 5 -10 -3 -17 -2 -17 4 0 6 -4 8 -9 5 -12 -8 -112 35 -105 45 3 5 -3 6 -12
2 -12 -5 -15 -3 -9 6 6 10 2 11 -15 6 -15 -5 -20 -4 -16 4 5 7 1 9 -8 5 -9 -3
-16 -2 -16 4 0 6 -10 8 -22 4 -16 -4 -19 -2 -13 8 6 9 4 11 -5 5 -14 -9 -130
24 -130 37 0 5 -5 6 -11 3 -12 -8 -99 14 -99 25 0 3 -13 5 -30 2 -16 -2 -30 0
-30 5 0 6 -11 8 -25 5 -14 -2 -25 0 -25 5 0 5 -13 8 -30 5 -16 -2 -30 0 -30 4
0 5 -20 8 -45 6 -25 -2 -45 0 -45 5 0 5 -18 7 -40 5 -22 -2 -40 0 -40 4 0 11
-195 12 -345 2z m333 -2210 c59 -28 163 -96 180 -116 13 -17 16 -64 5 -75 -3
-4 -15 -31 -25 -59 -53 -146 -143 -405 -173 -498 -18 -58 -44 -139 -58 -180
-14 -41 -42 -129 -62 -195 -20 -66 -50 -163 -67 -215 -17 -52 -52 -169 -80
-260 -27 -91 -65 -217 -85 -280 -39 -128 -60 -200 -73 -245 -4 -16 -17 -59
-28 -95 -11 -36 -22 -74 -25 -85 -3 -11 -13 -45 -22 -75 -9 -30 -20 -68 -25
-85 -4 -16 -24 -86 -45 -155 -29 -98 -209 -753 -239 -870 -100 -386 -131 -522
-165 -712 -28 -156 -28 -231 0 -257 37 -35 97 -42 289 -35 106 4 180 3 180 -2
-1 -36 -99 -94 -225 -134 -94 -30 -254 -37 -352 -17 -192 41 -335 146 -410
300 -63 129 -76 189 -77 352 -1 163 13 241 79 440 23 71 53 164 65 205 13 41
38 125 57 185 19 61 41 130 48 155 8 25 34 110 59 190 25 80 55 177 66 215 11
39 29 93 39 120 11 28 25 75 31 105 7 30 25 93 40 140 32 102 82 260 109 350
35 117 101 332 146 475 50 162 101 332 140 460 15 50 51 167 80 260 30 94 57
182 61 197 l6 27 -153 -51 c-151 -49 -241 -67 -275 -54 -35 13 30 58 231 156
180 89 207 106 271 167 189 182 279 255 342 277 41 15 68 10 140 -26z m3632
-519 c312 -55 497 -169 732 -449 91 -110 196 -286 226 -380 71 -219 -84 -545
-338 -714 -102 -68 -379 -201 -467 -225 -139 -37 -367 -48 -438 -21 -26 10
-28 13 -13 21 10 6 31 12 48 14 242 30 618 327 749 591 55 111 69 159 77 261
13 168 -33 311 -136 426 -105 117 -225 182 -440 238 -97 26 -139 32 -275 36
-152 5 -164 4 -235 -20 -41 -14 -114 -37 -161 -50 -47 -14 -104 -34 -127 -46
-23 -11 -47 -21 -55 -21 -7 0 -39 -16 -71 -35 -32 -19 -90 -52 -130 -74 -337
-183 -636 -410 -998 -759 -329 -316 -498 -547 -530 -723 -32 -174 26 -285 217
-412 64 -43 195 -38 465 18 41 8 91 18 110 21 19 3 58 11 85 19 28 8 70 18 95
24 25 5 115 28 200 50 191 48 524 125 605 140 33 5 132 13 220 16 88 4 189 8
225 9 280 13 623 -82 870 -243 69 -44 233 -208 283 -282 126 -185 127 -442 4
-764 -79 -208 -150 -310 -351 -508 -185 -182 -344 -296 -587 -422 -332 -171
-553 -234 -1004 -285 -344 -39 -716 -37 -995 6 -263 41 -643 126 -716 160 -59
28 -237 222 -280 306 -9 18 -28 46 -41 62 -35 42 -106 195 -138 295 -22 69
-26 104 -27 193 0 59 -2 108 -3 108 -2 0 -32 -13 -67 -29 -124 -58 -196 -76
-295 -76 -127 0 -134 12 -41 66 101 59 240 153 301 205 28 24 54 44 59 44 4 0
33 21 63 48 111 95 135 114 197 154 35 23 79 48 98 55 56 24 144 6 228 -48 22
-14 30 -53 12 -64 -29 -18 -117 -214 -177 -395 -24 -73 -28 -262 -8 -340 26
-100 70 -174 139 -234 158 -136 236 -179 371 -205 143 -27 164 -30 330 -35
370 -13 494 -15 555 -7 166 22 401 61 417 69 10 6 54 20 98 32 153 43 450 173
565 248 189 124 436 386 562 597 120 201 187 356 194 448 14 168 -88 367 -222
435 -45 22 -148 47 -283 68 -111 17 -522 19 -646 4 -44 -5 -143 -17 -220 -26
-77 -9 -196 -29 -265 -46 -195 -46 -295 -67 -425 -88 -66 -10 -165 -27 -220
-36 -125 -20 -488 -24 -585 -5 -248 47 -469 203 -560 393 -60 126 -72 182 -71
340 2 196 10 230 93 368 37 62 112 174 138 205 79 94 286 271 432 369 20 14
39 30 42 35 16 25 190 163 281 223 197 129 617 358 658 358 8 0 36 12 63 26
27 14 89 42 139 61 49 19 106 41 126 50 20 8 65 23 100 33 35 10 109 33 164
49 291 89 728 119 1005 70z"/>
<path d="M2650 9750 c-9 -6 -10 -10 -3 -10 6 0 15 5 18 10 8 12 4 12 -15 0z"/>
<path d="M9586 7257 c3 -10 9 -15 12 -12 3 3 0 11 -7 18 -10 9 -11 8 -5 -6z"/>
</g>
</svg>
