<?xml version="1.0" standalone="no"?>
<!DOCTYPE svg PUBLIC "-//W3C//DTD SVG 20010904//EN" "http://www.w3.org/TR/2001/REC-SVG-20010904/DTD/svg10.dtd">

<svg version="1.0" xmlns="http://www.w3.org/2000/svg"
    width="768.000000pt" height="512.000000pt" viewBox="0 0 768.000000 512.000000"
    preserveAspectRatio="xMidYMid meet">

    <g transform="translate(0.000000,512.000000) scale(0.100000,-0.100000)"
        stroke="none" fill="ff0000">
        <path
            d="M7145 3673 c-33 -25 -61 -48 -62 -51 -2 -4 25 -38 58 -77 67 -76 167
-221 188 -273 13 -32 14 -32 39 -16 23 15 26 15 34 0 8 -14 17 -10 70 27 33
23 62 47 65 54 10 26 -82 171 -195 305 -61 73 -66 77 -85 63 -18 -12 -23 -12
-36 -1 -14 11 -24 7 -76 -31z" />
        <path
            d="M6907 3543 l-66 -46 55 -60 c68 -73 146 -183 185 -259 16 -32 32 -58
34 -58 3 0 14 6 25 13 17 10 22 9 30 -3 7 -12 21 -6 74 30 36 25 66 50 66 55
0 17 -87 164 -129 219 -23 28 -62 75 -89 105 -44 50 -49 53 -69 41 -16 -11
-25 -11 -35 -2 -11 9 -28 2 -81 -35z" />
        <path
            d="M3560 3370 l0 -180 -380 0 -380 0 0 -430 0 -431 148 3 147 3 3 313 2
312 612 0 611 0 -6 -162 c-13 -355 -98 -625 -247 -790 -138 -153 -374 -265
-705 -333 -72 -15 -131 -29 -133 -30 -2 -2 22 -53 52 -113 l56 -111 42 1 c102
2 395 93 574 178 490 234 656 571 681 1373 l6 217 -391 0 -392 0 0 180 0 180
-150 0 -150 0 0 -180z" />
        <path
            d="M357 3368 c-26 -56 -44 -105 -40 -108 5 -4 58 -26 118 -50 145 -56
383 -167 469 -217 56 -33 73 -39 87 -30 13 8 21 7 34 -3 9 -8 19 -9 24 -4 18
20 132 196 129 199 -10 10 -339 170 -423 205 -188 80 -277 111 -289 101 -7 -6
-17 -6 -26 -1 -29 18 -37 9 -83 -92z" />
        <path
            d="M5743 3442 c-18 -2 -33 -4 -33 -5 0 -1 -5 -90 -10 -197 -23 -448 -97
-792 -244 -1135 -61 -141 -153 -307 -236 -422 l-59 -82 67 -58 c37 -31 77 -66
89 -77 18 -15 25 -17 37 -7 11 10 20 10 36 1 12 -6 23 -10 24 -8 1 2 16 21 33
43 93 121 240 391 312 572 146 367 241 866 241 1263 0 95 -1 100 -22 105 -29
6 -192 11 -235 7z" />
        <path
            d="M6591 3437 l-84 -10 7 -86 c53 -695 239 -1310 527 -1735 105 -155
104 -154 126 -133 18 15 20 16 36 0 16 -16 22 -11 104 67 49 47 89 85 91 86 1
0 -35 57 -80 125 -264 395 -425 878 -493 1469 -8 74 -15 156 -15 183 l0 47
-67 -1 c-38 -1 -106 -6 -152 -12z" />
        <path
            d="M1855 2908 c-27 -51 -89 -151 -136 -222 -339 -517 -666 -760 -1302
-970 l-187 -62 52 -106 51 -107 61 3 c148 8 648 222 894 382 323 211 601 526
829 941 l51 92 -96 72 c-84 63 -97 70 -107 56 -10 -15 -14 -15 -31 -2 -10 8
-21 14 -24 14 -3 0 -27 -41 -55 -91z" />
        <path
            d="M180 2781 c-5 -20 -18 -66 -29 -104 -10 -37 -16 -69 -12 -71 3 -2 78
-27 166 -56 171 -57 296 -104 439 -165 58 -25 91 -35 94 -27 2 8 11 8 29 1 15
-5 29 -6 33 -2 4 4 23 54 43 110 l35 101 -36 16 c-20 8 -79 33 -130 56 -190
83 -469 168 -573 174 -49 3 -49 2 -59 -33z" />
    </g>
</svg>